<svg id="Capa_1" enable-background="new 0 0 512 512" height="512" viewBox="0 0 512 512" width="512" xmlns="http://www.w3.org/2000/svg" xmlns:xlink="http://www.w3.org/1999/xlink"><linearGradient id="SVGID_1_" gradientUnits="userSpaceOnUse" x1="0" x2="512" y1="256" y2="256"><stop offset="0" stop-color="#d2deff" stop-opacity="0"/><stop offset=".459" stop-color="#cee2fd" stop-opacity=".67"/><stop offset=".6852" stop-color="#c9e7fa"/></linearGradient><g><g><path d="m16.074 302.88c18.727 64.003 72.707 194.564 163.922 182.845 91.486-11.755 55.758-129.725 139.508-145.894 36.867-7.118 61.857 56.689 98.806 54.704 47.588-2.557 71.81-49.663 85.108-89.264 28.197-83.968-14.029-226.352-112.858-251.011-86.244-21.519-96.332 83.855-171.322 53.248-42.149-17.203-37.938-68.576-89.272-78.942-155.299-31.36-138.811 189.15-113.892 274.314z" fill="url(#SVGID_1_)"/></g><g><g><path d="m423.75 284.074h-159.5v-30.149h109.5c2.761 0 5-2.239 5-5v-109.637c0-2.761-2.239-5-5-5h-109.5v-46.666h1.732c2.762 0 5-2.239 5-5s-2.238-5-5-5h-13.465c-2.762 0-5 2.239-5 5s2.238 5 5 5h1.732v46.666h-109.5c-2.761 0-5 2.239-5 5v109.638c0 2.761 2.239 5 5 5h109.5v30.149h-159.499c-2.761 0-5 2.239-5 5v109.638c0 2.761 2.239 5 5 5h159.5v46.666h-1.732c-2.762 0-5 2.239-5 5s2.238 5 5 5h13.465c2.762 0 5-2.239 5-5s-2.238-5-5-5h-1.732v-46.666h159.5c2.761 0 5-2.239 5-5v-109.639c-.001-2.761-2.239-5-5.001-5z" fill="#bae1f8"/><g><path d="m373.75 233.926h-229c-2.761 0-5-2.239-5-5v-109.638c0-2.761 2.239-5 5-5h229c2.761 0 5 2.239 5 5v109.638c0 2.761-2.239 5-5 5z" fill="#73aacf"/><path d="m350.102 179.286h-181.704c-2.761 0-5-2.239-5-5v-34c0-2.761 2.239-5 5-5h181.705c2.761 0 5 2.239 5 5v34c-.001 2.761-2.239 5-5.001 5z" fill="#a9d2ea"/></g><g><g><path d="m423.75 383.712h-329c-2.761 0-5-2.239-5-5v-109.638c0-2.761 2.239-5 5-5h329c2.761 0 5 2.239 5 5v109.638c0 2.762-2.239 5-5 5z" fill="#73aacf"/><path d="m400.102 329.072h-281.704c-2.761 0-5-2.239-5-5v-34c0-2.761 2.239-5 5-5h281.705c2.761 0 5 2.239 5 5v34c-.001 2.762-2.239 5-5.001 5z" fill="#a9d2ea"/></g><path d="m428.75 321c2.762 0 5-2.239 5-5v-46.926c0-5.514-4.486-10-10-10h-159.5v-20.148h109.5c5.514 0 10-4.486 10-10v-109.638c0-5.514-4.486-10-10-10h-109.5v-41.666h1.732c2.762 0 5-2.239 5-5s-2.238-5-5-5h-13.465c-2.762 0-5 2.239-5 5s2.238 5 5 5h1.732v41.666h-109.5c-5.514 0-10 4.486-10 10v109.638c0 5.514 4.486 10 10 10h49.251c2.762 0 5-2.239 5-5s-2.238-5-5-5h-49.25v-109.638h229v109.638h-145.75c-2.762 0-5 2.239-5 5s2.238 5 5 5h26.25v20.148h-159.5c-5.514 0-10 4.486-10 10v109.638c0 5.514 4.486 10 10 10h159.5v41.666h-1.732c-2.762 0-5 2.239-5 5s2.238 5 5 5h13.465c2.762 0 5-2.239 5-5s-2.238-5-5-5h-1.732v-41.666h159.5c5.514 0 10-4.486 10-10v-28.712c0-2.761-2.238-5-5-5s-5 2.239-5 5v28.712h-329v-109.638h329v46.926c-.001 2.761 2.237 5 4.999 5z" fill="#11385b"/><g><g><path d="m239.417 351.987c-2.761 0-5-2.239-5-5v-.115c0-2.761 2.239-5 5-5s5 2.239 5 5v.115c0 2.761-2.239 5-5 5z" fill="#a9d2ea"/></g><g><path d="m259.25 351.987c-2.761 0-5-2.239-5-5v-.115c0-2.761 2.239-5 5-5s5 2.239 5 5v.115c0 2.761-2.239 5-5 5z" fill="#a9d2ea"/></g><g><path d="m279.083 351.987c-2.761 0-5-2.239-5-5v-.115c0-2.761 2.239-5 5-5s5 2.239 5 5v.115c0 2.761-2.238 5-5 5z" fill="#a9d2ea"/></g></g></g><g><g><path d="m239.417 202.2c-2.761 0-5-2.239-5-5v-.115c0-2.761 2.239-5 5-5s5 2.239 5 5v.115c0 2.761-2.239 5-5 5z" fill="#a9d2ea"/></g><g><path d="m259.25 202.2c-2.761 0-5-2.239-5-5v-.115c0-2.761 2.239-5 5-5s5 2.239 5 5v.115c0 2.761-2.239 5-5 5z" fill="#a9d2ea"/></g><g><path d="m279.083 202.2c-2.761 0-5-2.239-5-5v-.115c0-2.761 2.239-5 5-5s5 2.239 5 5v.115c0 2.761-2.238 5-5 5z" fill="#a9d2ea"/></g></g><path d="m410.103 161.214c-1.279 0-2.56-.488-3.535-1.464-1.953-1.953-1.953-5.119 0-7.071l10-10c1.951-1.952 5.119-1.952 7.07 0 1.953 1.953 1.953 5.119 0 7.071l-10 10c-.976.976-2.256 1.464-3.535 1.464z" fill="#2a719b"/><path d="m405.103 217.2c-1.279 0-2.56-.488-3.535-1.464-1.953-1.953-1.953-5.119 0-7.071l10-10c1.951-1.952 5.119-1.952 7.07 0 1.953 1.953 1.953 5.119 0 7.071l-10 10c-.976.976-2.256 1.464-3.535 1.464z" fill="#17B794"/><path d="m313.686 450.586c-1.279 0-2.56-.488-3.535-1.464-1.953-1.953-1.953-5.119 0-7.071l10-10c1.951-1.952 5.119-1.952 7.07 0 1.953 1.953 1.953 5.119 0 7.071l-10 10c-.976.976-2.256 1.464-3.535 1.464z" fill="#17B794"/><path d="m94.25 228.257c-2.762 0-5-2.239-5-5 0-3.309-2.691-6-6-6-2.762 0-5-2.239-5-5s2.238-5 5-5c3.309 0 6-2.692 6-6 0-2.761 2.238-5 5-5s5 2.239 5 5c0 3.309 2.691 6 6 6 2.762 0 5 2.239 5 5s-2.238 5-5 5c-3.309 0-6 2.691-6 6 0 2.762-2.238 5-5 5z" fill="#2a719b"/><path d="m158.986 78.622c-2.762 0-5-2.239-5-5 0-3.309-2.691-6-6-6-2.762 0-5-2.239-5-5s2.238-5 5-5c3.309 0 6-2.691 6-6 0-2.761 2.238-5 5-5s5 2.239 5 5c0 3.309 2.691 6 6 6 2.762 0 5 2.239 5 5s-2.238 5-5 5c-3.309 0-6 2.691-6 6 0 2.761-2.238 5-5 5z" fill="#17B794"/></g><g fill="#fff"><path d="m350.102 135.286h-51.769v44h51.769c2.761 0 5-2.239 5-5v-34c0-2.761-2.238-5-5-5z"/><path d="m400.102 285.073h-101.769v44h101.769c2.761 0 5-2.239 5-5v-34c0-2.762-2.238-5-5-5z"/></g></g></g></svg>