<svg id="Capa_1" enable-background="new 0 0 512 512" height="512" viewBox="0 0 512 512" width="512" xmlns="http://www.w3.org/2000/svg" xmlns:xlink="http://www.w3.org/1999/xlink"><linearGradient id="SVGID_1_" gradientUnits="userSpaceOnUse" x1="27.58" x2="504.532" y1="389.429" y2="114.061"><stop offset="0" stop-color="#d2deff" stop-opacity="0"/><stop offset=".459" stop-color="#cee2fd" stop-opacity=".67"/><stop offset=".6852" stop-color="#c9e7fa"/></linearGradient><g><g><path d="m4.896 324.259c17.448 172.871 292.417 167.142 420.804 136.265 82.47-19.834 87.596-59.472 86.106-144.001-.96-54.486 3.443-198.725-32.004-244.123-54.448-69.733-103.228-25.998-170.656-3.235-86.488 29.197-120.189-22.932-202.476-21.38-120.641 2.278-110.779 187.252-101.774 276.474z" fill="url(#SVGID_1_)"/></g><g><g><g fill="#bae1f8"><circle cx="112.401" cy="208.263" r="15.418"/><circle cx="114.714" cy="149.111" r="15.418"/><circle cx="117.028" cy="89.959" r="15.418"/></g><g fill="#bae1f8"><circle cx="176.18" cy="92.273" r="15.418"/><circle cx="235.332" cy="94.586" r="15.418"/></g><g><circle cx="173.866" cy="151.425" fill="#bae1f8" r="15.418"/></g><g fill="#bae1f8"><path d="m393.969 462.037h-161.57c-11.625 0-21.048-9.424-21.048-21.048v-240.777c0-17.437 14.135-31.572 31.572-31.572h140.522c17.437 0 31.572 14.135 31.572 31.572v240.776c0 11.625-9.423 21.049-21.048 21.049z"/><path d="m340.863 131.426h-55.357c-3.252 0-5.736-2.936-5.178-6.146l8.714-50.947c.432-2.526 2.631-4.367 5.188-4.367h37.908c2.557 0 4.757 1.842 5.188 4.367l8.714 50.947c.558 3.21-1.925 6.146-5.177 6.146z"/></g></g><g><path d="m298.45 104.407h29.468v55.778h-29.468z" fill="#226191"/><path d="m298.45 104.407h29.468v23.332h-29.468z" fill="#226191"/><g><g fill="#17B794"><circle cx="112.401" cy="188.263" r="15.418"/><circle cx="114.714" cy="129.111" r="15.418"/><circle cx="117.028" cy="69.959" r="15.418"/></g><g fill="#17B794"><circle cx="176.18" cy="72.273" r="15.418"/><circle cx="235.332" cy="74.586" r="15.418"/></g><g><circle cx="173.866" cy="131.425" fill="#17B794" r="15.418"/></g></g><g><path d="m393.969 442.037h-161.57c-11.625 0-21.048-9.424-21.048-21.048v-240.777c0-17.437 14.135-31.572 31.572-31.572h140.522c17.437 0 31.572 14.135 31.572 31.572v240.776c0 11.625-9.423 21.049-21.048 21.049z" fill="#73aacf"/><path d="m211.351 207.958v213.031c0 11.625 9.424 21.048 21.048 21.048h161.57c11.625 0 21.048-9.424 21.048-21.048v-213.031z" fill="#2a719b"/><path d="m252.271 442.037h124.278v-46.399c0-5.812-4.712-10.524-10.524-10.524h-103.23c-5.812 0-10.524 4.712-10.524 10.524z" fill="#73aacf"/><path d="m377.929 408.682h-36.711c-2.906 0-5.262-2.356-5.262-5.262s2.356-5.262 5.262-5.262h36.711c2.906 0 5.262 2.356 5.262 5.262s-2.356 5.262-5.262 5.262z" fill="#fff"/><path d="m377.929 390.376h-36.711c-2.906 0-5.262-2.356-5.262-5.262s2.356-5.262 5.262-5.262h36.711c2.906 0 5.262 2.356 5.262 5.262s-2.356 5.262-5.262 5.262z" fill="#fff"/><path d="m353.909 187.981h-78.807c-2.906 0-5.262-2.356-5.262-5.262s2.356-5.262 5.262-5.262h78.807c2.906 0 5.262 2.356 5.262 5.262s-2.356 5.262-5.262 5.262z" fill="#a9d2ea"/></g><path d="m340.863 111.426h-55.357c-3.252 0-5.736-2.936-5.178-6.146l8.714-50.947c.432-2.526 2.631-4.367 5.188-4.367h37.908c2.557 0 4.757 1.842 5.188 4.367l8.714 50.947c.558 3.21-1.925 6.146-5.177 6.146z" fill="#73aacf"/><g><path d="m312.132 78.191c0 5.241-4.252 9.503-9.503 9.503h-19.291l3.252-19.007h16.039c5.251.001 9.503 4.252 9.503 9.504z" fill="#226191"/></g><g><g><g><g><path d="m113.199 167.861c-11.246-.449-20.76 8.355-21.2 19.604s8.355 20.76 19.604 21.2c.271.011.539.016.808.016 10.893 0 19.963-8.642 20.393-19.621.439-11.248-8.355-20.759-19.605-21.199zm-1.205 30.812c-5.74-.225-10.227-5.077-10.003-10.817.219-5.602 4.847-10.011 10.405-10.011.137 0 .274.002.412.008 5.74.225 10.227 5.077 10.003 10.817-.225 5.74-5.093 10.218-10.817 10.003z" fill="#11385b"/></g></g><g><g><path d="m115.512 108.709c-11.25-.445-20.761 8.354-21.2 19.604-.213 5.449 1.708 10.656 5.411 14.66s8.744 6.327 14.193 6.54c.271.011.539.016.808.016 10.893 0 19.963-8.642 20.393-19.621.44-11.248-8.355-20.759-19.605-21.199zm-1.205 30.812c-2.781-.109-5.353-1.294-7.242-3.337-1.89-2.043-2.87-4.699-2.761-7.48.219-5.602 4.846-10.011 10.405-10.011.137 0 .274.002.412.008 5.74.225 10.227 5.077 10.003 10.817s-5.087 10.22-10.817 10.003z" fill="#11385b"/></g></g><g><g><path d="m117.826 49.557c-5.437-.215-10.656 1.708-14.661 5.411-4.004 3.703-6.327 8.743-6.54 14.193s1.708 10.656 5.411 14.661c3.703 4.004 8.744 6.327 14.193 6.54.273.011.546.016.818.016 5.151 0 10.039-1.91 13.842-5.427 4.004-3.703 6.327-8.744 6.54-14.193s-1.708-10.656-5.411-14.66c-3.703-4.005-8.743-6.328-14.192-6.541zm6.275 28.051c-2.043 1.889-4.701 2.869-7.48 2.761-2.781-.109-5.353-1.294-7.242-3.337-1.89-2.043-2.87-4.7-2.761-7.48s1.294-5.352 3.337-7.241c1.94-1.795 4.435-2.77 7.063-2.77.139 0 .278.003.417.008 2.78.109 5.352 1.294 7.241 3.337 1.89 2.043 2.87 4.699 2.761 7.48s-1.293 5.353-3.336 7.242z" fill="#11385b"/></g></g><g><g><path d="m176.978 51.871c-11.227-.448-20.76 8.353-21.2 19.604-.213 5.45 1.709 10.656 5.412 14.661 3.703 4.004 8.743 6.327 14.193 6.54.271.011.539.016.808.016 10.893-.001 19.962-8.642 20.392-19.621.213-5.45-1.709-10.656-5.412-14.66-3.703-4.005-8.744-6.328-14.193-6.54zm-1.206 30.812c-5.74-.225-10.227-5.077-10.003-10.817.219-5.602 4.847-10.01 10.405-10.01.137 0 .274.002.413.008 2.781.109 5.353 1.294 7.242 3.337s2.87 4.699 2.761 7.48c-.225 5.738-5.059 10.237-10.818 10.002z" fill="#11385b"/></g></g><g><g><path d="m234.534 94.988c.273.011.546.016.818.016 5.151 0 10.039-1.91 13.843-5.427 4.004-3.703 6.327-8.744 6.54-14.193s-1.708-10.656-5.411-14.66-8.744-6.327-14.193-6.54c-5.451-.211-10.656 1.709-14.66 5.412s-6.327 8.743-6.54 14.193 1.708 10.656 5.411 14.661c3.701 4.003 8.742 6.325 14.192 6.538zm.793-30.82c.137 0 .274.002.412.008 2.781.109 5.353 1.294 7.242 3.337 1.89 2.043 2.87 4.699 2.761 7.48s-1.294 5.353-3.337 7.242c-2.043 1.89-4.692 2.87-7.48 2.761-2.78-.109-5.352-1.294-7.241-3.337-1.89-2.043-2.87-4.7-2.761-7.48.218-5.602 4.845-10.011 10.404-10.011z" fill="#11385b"/></g></g><g><g><path d="m174.664 111.022c-11.259-.453-20.76 8.354-21.2 19.604s8.354 20.76 19.604 21.2c.271.011.539.016.808.016 10.893 0 19.963-8.642 20.393-19.621.213-5.45-1.709-10.656-5.412-14.661-3.703-4.002-8.743-6.325-14.193-6.538zm-1.205 30.813c-5.74-.225-10.227-5.077-10.003-10.817.225-5.74 5.092-10.223 10.817-10.003 5.74.225 10.227 5.077 10.003 10.817s-5.089 10.225-10.817 10.003z" fill="#11385b"/></g></g><g><path d="m383.445 143.64h-10.695c-2.761 0-5 2.239-5 5s2.239 5 5 5h10.695c14.652 0 26.573 11.92 26.573 26.573v166.954c0 2.761 2.239 5 5 5s5-2.239 5-5v-166.955c0-20.166-16.407-36.572-36.573-36.572z" fill="#11385b"/></g><g><g><path d="m415.018 374.852c-2.761 0-5 2.239-5 5v41.136c0 8.849-7.199 16.048-16.048 16.048h-161.57c-8.849 0-16.048-7.199-16.048-16.048v-240.776c0-14.652 11.92-26.573 26.572-26.573h84.995c2.761 0 5-2.239 5-5v-32.211h7.94c3.031 0 5.891-1.329 7.845-3.646s2.782-5.36 2.27-8.348l-8.722-50.941c-.846-4.943-5.1-8.53-10.115-8.53h-37.904c-5.015 0-9.269 3.587-10.115 8.53l-8.722 50.941c-.512 2.988.316 6.03 2.27 8.348 1.954 2.317 4.813 3.646 7.845 3.646h7.94v27.211h-50.527c-20.166 0-36.572 16.406-36.572 36.573v240.776c0 14.363 11.685 26.048 26.048 26.048h161.57c14.363 0 26.048-11.685 26.048-26.048v-41.136c0-2.761-2.239-5-5-5zm-129.708-268.517c-.079-.093-.064-.174-.058-.213l8.722-50.941c.021-.126.13-.218.259-.218h37.904c.128 0 .237.092.258.218l8.722 50.941c.006.039.021.12-.058.213-.078.093-.161.093-.2.093h-55.349c-.04.001-.122.001-.2-.093zm18.14 10.094h19.468v27.211h-19.468z" fill="#11385b"/></g></g></g></g><g><circle cx="325.253" cy="286.621" fill="#fff" r="57.938"/><circle cx="289.578" cy="322.296" fill="#a9d2ea" r="40.512"/><path d="m330.095 322.294c0 8.216-2.441 15.853-6.633 22.229-30.579-.925-55.183-25.54-56.109-56.109 6.377-4.192 14.013-6.633 22.229-6.633 22.375.001 40.513 18.139 40.513 40.513z" fill="#bae1f8"/><g><g><path d="m335.766 290.829c0-10.212-8.309-18.521-18.521-18.521s-18.521 8.308-18.521 18.521c0 5.037 2.027 9.605 5.301 12.947-3.274 3.342-5.301 7.91-5.301 12.947 0 3.078 2.495 5.574 5.574 5.574s5.574-2.496 5.574-5.574c0-4.065 3.307-7.373 7.373-7.373s7.373 3.307 7.373 7.373c0 3.078 2.495 5.574 5.574 5.574s5.574-2.496 5.574-5.574c0-5.037-2.027-9.605-5.301-12.947 3.274-3.343 5.301-7.911 5.301-12.947zm-18.521-7.373c4.065 0 7.373 3.307 7.373 7.373s-3.307 7.373-7.373 7.373-7.373-3.307-7.373-7.373 3.308-7.373 7.373-7.373z" fill="#73aacf"/></g></g><path d="m330.095 322.283c-3.043-.045-5.474-2.52-5.474-5.563 0-4.069-3.311-7.369-7.38-7.369-4.058 0-7.369 3.3-7.369 7.369 0 3.077-2.497 5.574-5.574 5.574s-5.574-2.497-5.574-5.574c0-5.039 2.029-9.599 5.295-12.943-3.266-3.344-5.295-7.915-5.295-12.954 0-2.709.58-5.273 1.639-7.592 3.645 1.003 7.09 2.508 10.245 4.415-.479.959-.736 2.04-.736 3.177 0 4.069 3.311 7.38 7.369 7.38 1.483 0 2.854-.435 4.002-1.182 5.541 6.923 8.852 15.708 8.852 25.262z" fill="#2a719b"/></g></g><path d="m383.191 119.693c-2.761 0-5-2.239-5-5 0-3.309-2.691-6-6-6-2.761 0-5-2.239-5-5s2.239-5 5-5c3.309 0 6-2.692 6-6 0-2.761 2.239-5 5-5s5 2.239 5 5c0 3.309 2.691 6 6 6 2.761 0 5 2.239 5 5s-2.239 5-5 5c-3.309 0-6 2.691-6 6 0 2.762-2.239 5-5 5z" fill="#17B794"/><path d="m126.333 285.051c-2.761 0-5-2.239-5-5 0-3.309-2.691-6-6-6-2.761 0-5-2.239-5-5s2.239-5 5-5c3.309 0 6-2.691 6-6 0-2.761 2.239-5 5-5s5 2.239 5 5c0 3.309 2.691 6 6 6 2.761 0 5 2.239 5 5s-2.239 5-5 5c-3.309 0-6 2.691-6 6 0 2.762-2.238 5-5 5z" fill="#2a719b"/><path d="m400.25 70.004c-1.28 0-2.559-.488-3.536-1.464-1.953-1.953-1.953-5.119 0-7.071l10-10c1.953-1.952 5.118-1.952 7.071 0 1.953 1.953 1.953 5.119 0 7.071l-10 10c-.976.976-2.255 1.464-3.535 1.464z" fill="#17B794"/><path d="m158.981 323.153c-1.28 0-2.559-.488-3.536-1.464-1.953-1.953-1.953-5.119 0-7.071l10-10c1.953-1.952 5.118-1.952 7.071 0 1.953 1.953 1.953 5.119 0 7.071l-10 10c-.975.976-2.255 1.464-3.535 1.464z" fill="#2a719b"/><path d="m117.446 379.756c-1.28 0-2.559-.488-3.536-1.464-1.953-1.953-1.953-5.119 0-7.071l10-10c1.953-1.952 5.118-1.952 7.071 0 1.953 1.953 1.953 5.119 0 7.071l-10 10c-.976.976-2.255 1.464-3.535 1.464z" fill="#17B794"/></g></g></svg>