<svg id="Capa_1" enable-background="new 0 0 512 512" height="512" viewBox="0 0 512 512" width="512" xmlns="http://www.w3.org/2000/svg" xmlns:xlink="http://www.w3.org/1999/xlink"><linearGradient id="SVGID_1_" gradientUnits="userSpaceOnUse" x1="63.731" x2="463.845" y1="377.304" y2="146.298"><stop offset="0" stop-color="#d2deff" stop-opacity="0"/><stop offset=".459" stop-color="#cee2fd" stop-opacity=".67"/><stop offset=".6852" stop-color="#c9e7fa"/></linearGradient><g><g><path d="m20.337 133.512c-23.967 39.398-26.493 107.613-8.937 150.256 15.377 37.351 45.966 72.409 86.12 76.801 14.766 1.615 29.858-1.024 44.472 1.638 50.257 9.152 68.952 71.09 108.01 104.014 27.182 22.913 64.898 31.021 100.174 26.607s68.302-20.363 97.376-40.824c22.957-16.157 44.436-36.022 55.764-61.707 23.744-53.839-4.19-118.501-47.587-158.239-13.516-12.377-28.581-23.294-39.875-37.727s-18.48-33.695-13.099-51.214c4.293-13.977 15.849-24.812 20.227-38.763 5.958-18.984-3.035-40.281-17.802-53.616s-34.308-20.039-53.666-24.64c-81.103-19.28-258.823-11.524-331.177 107.414z" fill="url(#SVGID_1_)"/></g><g><g><path d="m355.088 260.242c-3.892 0-7.733.219-11.515.632v-63.962c0-16.569-13.431-30-30-30h-74.845v-94.845c0-5.523-4.477-10-10-10h-166.661c-5.523 0-10 4.477-10 10v166.66c0 5.523 4.477 10 10 10h94.845v74.845c0 16.569 13.431 30 30 30h63.962c-.413 3.782-.632 7.623-.632 11.515 0 57.904 46.941 104.845 104.845 104.845 57.904 0 104.845-46.941 104.845-104.845.001-57.904-46.94-104.845-104.844-104.845z" fill="#bae1f8"/><g><path d="m228.727 228.727h-166.66c-5.523 0-10-4.477-10-10v-166.66c0-5.523 4.477-10 10-10h166.66c5.523 0 10 4.477 10 10v166.66c0 5.523-4.477 10-10 10z" fill="#2a719b"/><g><g><path d="m82.067 82.715c-2.761 0-5-2.239-5-5v-5.65c0-2.761 2.239-5 5-5h5.65c2.761 0 5 2.239 5 5s-2.239 5-5 5h-.65v.65c0 2.761-2.239 5-5 5z" fill="#73aacf"/></g></g><g><g><path d="m87.717 203.725h-5.65c-2.761 0-5-2.239-5-5v-5.64c0-2.761 2.239-5 5-5s5 2.239 5 5v.64h.65c2.761 0 5 2.239 5 5s-2.239 5-5 5z" fill="#73aacf"/></g></g><g><g><path d="m208.727 82.715c-2.761 0-5-2.239-5-5v-.65h-.65c-2.761 0-5-2.239-5-5s2.239-5 5-5h5.65c2.761 0 5 2.239 5 5v5.65c0 2.761-2.238 5-5 5z" fill="#73aacf"/></g></g><path d="m313.573 333.573h-126.66c-16.569 0-30-13.431-30-30v-126.66c0-16.569 13.431-30 30-30h126.66c16.569 0 30 13.431 30 30v126.66c0 16.568-13.432 30-30 30z" fill="#73aacf"/><path d="m186.912 176.913h126.66v126.66h-126.66z" fill="#3e85a9" transform="matrix(0 1 -1 0 490.485 -10)"/><path d="m355.088 449.933c-57.905 0-104.845-46.941-104.845-104.845 0-57.904 46.941-104.845 104.845-104.845 57.904 0 104.845 46.941 104.845 104.845 0 57.904-46.941 104.845-104.845 104.845z" fill="#fff"/><path d="m355.088 419.933c-41.27 0-74.846-33.575-74.846-74.845s33.576-74.845 74.846-74.845 74.845 33.575 74.845 74.845c-.001 41.269-33.576 74.845-74.845 74.845z" fill="#bae1f8"/><g><g><g><g><path d="m355.088 265.243c-44.027 0-79.846 35.818-79.846 79.845s35.818 79.845 79.846 79.845c44.026 0 79.845-35.819 79.845-79.846 0-44.026-35.819-79.844-79.845-79.844zm0 149.69c-38.513 0-69.846-31.333-69.846-69.845s31.333-69.845 69.846-69.845 69.845 31.332 69.845 69.845-31.332 69.845-69.845 69.845z" fill="#11385b"/></g></g><g><g><path d="m355.088 235.243c-54.956 0-100.614 40.568-108.604 93.33h-59.571c-13.785 0-25-11.215-25-25v-126.66c0-13.785 11.215-25 25-25h126.66c13.785 0 25 11.215 25 25v30.045c0 2.761 2.238 5 5 5s5-2.239 5-5v-30.045c0-19.299-15.701-35-35-35h-69.845v-89.846c0-8.271-6.729-15-15-15h-166.661c-8.271 0-15 6.729-15 15v166.66c0 8.271 6.729 15 15 15h60.845c2.761 0 5-2.239 5-5s-2.239-5-5-5h-60.845c-2.757 0-5-2.243-5-5v-166.66c0-2.757 2.243-5 5-5h166.66c2.757 0 5 2.243 5 5v89.845h-46.815c-19.299 0-35 15.701-35 35v126.66c0 19.299 15.701 35 35 35h58.529c-.127 2.156-.199 4.327-.199 6.515 0 60.568 49.277 109.845 109.845 109.845s109.845-49.276 109.845-109.845c.001-60.568-49.276-109.844-109.844-109.844zm0 209.69c-55.055 0-99.845-44.791-99.845-99.845s44.791-99.845 99.845-99.845 99.845 44.791 99.845 99.845-44.79 99.845-99.845 99.845z" fill="#11385b"/></g></g></g></g></g></g><path d="m106.872 320.721c-2.761 0-5-2.239-5-5 0-3.309-2.691-6-6-6-2.761 0-5-2.239-5-5s2.239-5 5-5c3.309 0 6-2.691 6-6 0-2.761 2.239-5 5-5s5 2.239 5 5c0 3.309 2.691 6 6 6 2.761 0 5 2.239 5 5s-2.239 5-5 5c-3.309 0-6 2.691-6 6 0 2.761-2.239 5-5 5z" fill="#17B794"/><path d="m178.833 413.507c-2.761 0-5-2.239-5-5 0-3.309-2.691-6-6-6-2.761 0-5-2.239-5-5s2.239-5 5-5c3.309 0 6-2.691 6-6 0-2.761 2.239-5 5-5s5 2.239 5 5c0 3.309 2.691 6 6 6 2.761 0 5 2.239 5 5s-2.239 5-5 5c-3.309 0-6 2.691-6 6 0 2.761-2.238 5-5 5z" fill="#2a719b"/><path d="m379.936 135.178c-2.762 0-5-2.239-5-5 0-3.309-2.691-6-6-6-2.762 0-5-2.239-5-5s2.238-5 5-5c3.309 0 6-2.691 6-6 0-2.761 2.238-5 5-5s5 2.239 5 5c0 3.309 2.691 6 6 6 2.762 0 5 2.239 5 5s-2.238 5-5 5c-3.309 0-6 2.691-6 6 0 2.761-2.239 5-5 5z" fill="#17B794"/><path d="m292 84.5c-1.279 0-2.56-.488-3.535-1.464-1.953-1.953-1.953-5.119 0-7.071l10-10c1.951-1.952 5.119-1.952 7.07 0 1.953 1.953 1.953 5.119 0 7.071l-10 10c-.975.976-2.256 1.464-3.535 1.464z" fill="#17B794"/><path d="m391.583 218.468c-1.279 0-2.56-.488-3.535-1.464-1.953-1.953-1.953-5.119 0-7.071l10-10c1.951-1.952 5.119-1.952 7.07 0 1.953 1.953 1.953 5.119 0 7.071l-10 10c-.975.975-2.256 1.464-3.535 1.464z" fill="#2a719b"/></g></g></svg>