<svg id="Capa_1" enable-background="new 0 0 512 512" height="512" viewBox="0 0 512 512" width="512" xmlns="http://www.w3.org/2000/svg" xmlns:xlink="http://www.w3.org/1999/xlink"><linearGradient id="SVGID_1_" gradientUnits="userSpaceOnUse" x1="23.821" x2="459.531" y1="343.269" y2="91.711"><stop offset="0" stop-color="#d2deff" stop-opacity="0"/><stop offset=".459" stop-color="#cee2fd" stop-opacity=".67"/><stop offset=".6852" stop-color="#c9e7fa"/></linearGradient><g><g><path d="m16.074 302.88c18.727 64.003 72.707 194.564 163.922 182.845 91.486-11.755 55.758-129.725 139.508-145.894 36.867-7.118 61.857 56.689 98.806 54.704 47.588-2.557 71.81-49.663 85.108-89.264 28.197-83.968-14.029-226.352-112.858-251.011-86.244-21.519-96.332 83.855-171.322 53.248-42.149-17.203-37.938-68.576-89.272-78.942-155.299-31.36-138.811 189.15-113.892 274.314z" fill="url(#SVGID_1_)"/></g><g><g><g fill="#bae1f8"><path d="m196.031 320.833-8.132 8.132c-1.953 1.953-1.953 5.119 0 7.071.976.976 2.256 1.464 3.535 1.464s2.56-.488 3.535-1.464l8.132-8.132c1.953-1.953 1.953-5.119 0-7.071-1.951-1.953-5.119-1.953-7.07 0z"/><path d="m222.004 294.859-8.132 8.132c-1.953 1.953-1.953 5.119 0 7.071.976.976 2.256 1.464 3.535 1.464s2.56-.488 3.535-1.464l8.132-8.132c1.953-1.953 1.953-5.119 0-7.071-1.951-1.952-5.119-1.952-7.07 0z"/><path d="m247.978 268.885-8.132 8.132c-1.953 1.953-1.953 5.119 0 7.071.976.976 2.256 1.464 3.535 1.464s2.56-.488 3.535-1.464l8.132-8.132c1.953-1.953 1.953-5.119 0-7.071-1.951-1.952-5.119-1.952-7.07 0z"/><path d="m273.952 242.912-8.132 8.132c-1.953 1.953-1.953 5.119 0 7.071.976.976 2.256 1.464 3.535 1.464s2.56-.488 3.535-1.464l8.132-8.132c1.953-1.953 1.953-5.119 0-7.071-1.951-1.952-5.119-1.952-7.07 0z"/><path d="m299.925 216.938-8.132 8.132c-1.953 1.953-1.953 5.119 0 7.071.976.976 2.256 1.464 3.535 1.464s2.56-.488 3.535-1.464l8.132-8.132c1.953-1.953 1.953-5.119 0-7.071-1.951-1.952-5.119-1.952-7.07 0z"/><path d="m325.899 190.964-8.132 8.132c-1.953 1.953-1.953 5.119 0 7.071.976.976 2.256 1.464 3.535 1.464s2.56-.488 3.535-1.464l8.132-8.132c1.953-1.953 1.953-5.119 0-7.071-1.951-1.952-5.119-1.952-7.07 0z"/><path d="m424.244 104.69c1.279 0 2.56-.488 3.535-1.464l8.132-8.132c1.953-1.953 1.953-5.119 0-7.071-1.951-1.952-5.119-1.952-7.07 0l-8.132 8.132c-1.953 1.953-1.953 5.119 0 7.071.976.976 2.256 1.464 3.535 1.464z"/><path d="m461.885 62.049c-1.951-1.952-5.119-1.952-7.07 0l-8.132 8.132c-1.953 1.953-1.953 5.119 0 7.071.976.976 2.256 1.464 3.535 1.464s2.56-.488 3.535-1.464l8.132-8.132c1.953-1.952 1.953-5.118 0-7.071z"/><path d="m67.115 449.748-8.132 8.132c-1.953 1.953-1.953 5.119 0 7.071.976.976 2.256 1.464 3.535 1.464s2.56-.488 3.535-1.464l8.132-8.132c1.953-1.953 1.953-5.119 0-7.071-1.951-1.952-5.119-1.952-7.07 0z"/><path d="m93.088 423.774-8.132 8.132c-1.953 1.953-1.953 5.119 0 7.071.976.976 2.256 1.464 3.535 1.464s2.56-.488 3.535-1.464l8.132-8.132c1.953-1.953 1.953-5.119 0-7.071-1.951-1.952-5.119-1.952-7.07 0z"/><path d="m447.434 363.29h-45.05v-220.66c0-4.462-1.395-8.593-3.76-12 1.159-.082 2.297-.545 3.182-1.431l8.132-8.132c1.953-1.953 1.953-5.119 0-7.071-1.951-1.952-5.119-1.952-7.07 0l-8.132 8.132c-.886.886-1.349 2.024-1.431 3.183-3.407-2.365-7.539-3.761-12-3.761h-220.66v-45.05c0-2.761-2.239-5-5-5h-32.16c-2.761 0-5 2.239-5 5v45.05h-45.05c-2.761 0-5 2.239-5 5v32.16c0 2.761 2.239 5 5 5h45.05v220.66c0 4.462 1.395 8.593 3.76 12-1.159.082-2.297.544-3.183 1.43l-8.132 8.132c-1.953 1.953-1.953 5.119 0 7.071.976.976 2.256 1.464 3.535 1.464s2.56-.488 3.535-1.464l8.132-8.132c.886-.886 1.349-2.024 1.431-3.183 3.407 2.365 7.539 3.761 12.001 3.761h220.66v45.05c0 2.761 2.239 5 5 5h32.16c2.761 0 5-2.239 5-5v-45.05h45.05c2.761 0 5-2.239 5-5v-32.16c0-2.76-2.239-4.999-5-4.999zm-87.21-196.029c-.217-.83-.631-1.62-1.281-2.27s-1.44-1.064-2.27-1.281h3.551zm-199.58 192.478c.217.83.631 1.62 1.281 2.27s1.44 1.064 2.27 1.281h-3.551zm6.082 3.551c.83-.217 1.62-.63 2.27-1.281l8.132-8.132c1.953-1.953 1.953-5.119 0-7.071-1.951-1.952-5.119-1.952-7.07 0l-8.132 8.132c-.651.65-1.064 1.44-1.281 2.27v-193.498h193.498c-.83.217-1.62.63-2.27 1.281l-8.132 8.132c-1.953 1.953-1.953 5.119 0 7.071.976.976 2.256 1.464 3.535 1.464s2.56-.488 3.535-1.464l8.132-8.132c.651-.65 1.064-1.44 1.281-2.27v193.498z"/></g><g><g><path d="m452.434 348.29v32.16c0 2.761-2.239 5-5 5h-307.87c-11.642 0-21.08-9.438-21.08-21.08v-307.87c0-2.761 2.239-5 5-5h32.16c2.761 0 5 2.239 5 5v286.79h286.79c2.761 0 5 2.239 5 5z" fill="#73aacf"/><path d="m118.484 133.167h42.16v28.543h-42.16z" fill="#3e85a9"/></g><g><path d="m402.384 122.63v220.66h-42.16v-199.58h-286.79c-2.761 0-5-2.239-5-5v-32.16c0-2.761 2.239-5 5-5h307.87c11.642 0 21.08 9.438 21.08 21.08z" fill="#fff"/><path d="m402.384 385.45v45.05c0 2.761-2.239 5-5 5h-32.16c-2.761 0-5-2.239-5-5v-45.05z" fill="#fff"/><path d="m360.224 385.45h42.16v18h-42.16z" fill="#bae1f8"/></g><g><g><g><g><path d="m447.434 338.291h-82.21v-194.581c0-2.761-2.238-5-5-5h-165.579c-2.762 0-5 2.239-5 5s2.238 5 5 5h153.508l-4.413 4.413c-1.953 1.953-1.953 5.119 0 7.071.976.976 2.256 1.464 3.535 1.464s2.56-.488 3.535-1.464l4.413-4.413v182.51h-182.51l4.413-4.413c1.953-1.953 1.953-5.119 0-7.071-1.951-1.952-5.119-1.952-7.07 0l-4.413 4.413v-187.51c0-2.761-2.238-5-5-5h-87.21v-32.16h307.87c8.866 0 16.08 7.213 16.08 16.08v188.537c0 2.761 2.238 5 5 5s5-2.239 5-5v-188.537c0-5.387-1.642-10.397-4.451-14.558l7.005-7.005c1.953-1.953 1.953-5.119 0-7.071-1.951-1.952-5.119-1.952-7.07 0l-7.005 7.005c-4.16-2.81-9.171-4.452-14.558-4.452h-215.66v-40.049c0-5.514-4.486-10-10-10h-32.161c-5.514 0-10 4.486-10 10v40.05h-40.049c-5.514 0-10 4.486-10 10v32.16c0 5.514 4.486 10 10 10h40.049v215.661c0 5.387 1.642 10.398 4.452 14.558l-7.004 7.003c-1.953 1.953-1.953 5.118 0 7.071.976.976 2.256 1.464 3.535 1.464s2.56-.488 3.535-1.464l7.004-7.004c4.161 2.809 9.171 4.451 14.558 4.451h215.66v40.05c0 5.514 4.486 10 10 10h32.16c5.514 0 10-4.486 10-10v-40.048h40.05c5.514 0 10-4.486 10-10v-32.161c.001-5.515-4.486-10-9.999-10zm-323.952-281.791h32.161v40.05h-32.161zm273.902 374h-32.16v-40.048h32.16zm50.05-50.048h-307.87c-8.867 0-16.081-7.214-16.081-16.081v-215.661h32.161v194.581c0 2.761 2.238 5 5 5h286.79z" fill="#11385b"/></g></g><g><path d="m191.434 317.5c1.279 0 2.56-.488 3.535-1.464l8.132-8.132c1.953-1.953 1.953-5.119 0-7.071-1.951-1.952-5.119-1.952-7.07 0l-8.132 8.132c-1.953 1.953-1.953 5.119 0 7.071.975.976 2.255 1.464 3.535 1.464z" fill="#11385b"/></g><g><path d="m220.942 290.062 8.132-8.132c1.953-1.953 1.953-5.119 0-7.071-1.951-1.952-5.119-1.952-7.07 0l-8.132 8.132c-1.953 1.953-1.953 5.119 0 7.071.976.976 2.256 1.464 3.535 1.464s2.56-.488 3.535-1.464z" fill="#11385b"/></g><g><path d="m246.916 264.088 8.132-8.132c1.953-1.953 1.953-5.119 0-7.071-1.951-1.952-5.119-1.952-7.07 0l-8.132 8.132c-1.953 1.953-1.953 5.119 0 7.071.976.976 2.256 1.464 3.535 1.464s2.559-.488 3.535-1.464z" fill="#11385b"/></g><g><path d="m272.89 238.115 8.132-8.132c1.953-1.953 1.953-5.119 0-7.071-1.951-1.952-5.119-1.952-7.07 0l-8.132 8.132c-1.953 1.953-1.953 5.119 0 7.071.976.976 2.256 1.464 3.535 1.464s2.559-.488 3.535-1.464z" fill="#11385b"/></g><g><path d="m298.863 212.141 8.132-8.132c1.953-1.953 1.953-5.119 0-7.071-1.951-1.952-5.119-1.952-7.07 0l-8.132 8.132c-1.953 1.953-1.953 5.119 0 7.071.976.976 2.256 1.464 3.535 1.464s2.56-.488 3.535-1.464z" fill="#11385b"/></g><g><path d="m324.837 186.167 8.132-8.132c1.953-1.953 1.953-5.119 0-7.071-1.951-1.952-5.119-1.952-7.07 0l-8.132 8.132c-1.953 1.953-1.953 5.119 0 7.071.976.976 2.256 1.464 3.535 1.464s2.559-.487 3.535-1.464z" fill="#11385b"/></g><g><path d="m424.244 84.69c1.279 0 2.56-.488 3.535-1.464l8.132-8.132c1.953-1.953 1.953-5.119 0-7.071-1.951-1.952-5.119-1.952-7.07 0l-8.132 8.132c-1.953 1.953-1.953 5.119 0 7.071.976.976 2.256 1.464 3.535 1.464z" fill="#11385b"/></g><g><path d="m461.885 42.049c-1.951-1.952-5.119-1.952-7.07 0l-8.132 8.132c-1.953 1.953-1.953 5.119 0 7.071.976.976 2.256 1.464 3.535 1.464s2.56-.488 3.535-1.464l8.132-8.132c1.953-1.953 1.953-5.119 0-7.071z" fill="#11385b"/></g><g><path d="m67.115 429.749-8.132 8.131c-1.953 1.953-1.953 5.118 0 7.071.976.976 2.256 1.464 3.535 1.464s2.56-.488 3.535-1.464l8.132-8.131c1.953-1.953 1.953-5.118 0-7.071-1.951-1.953-5.119-1.953-7.07 0z" fill="#11385b"/></g><g><path d="m93.089 403.775-8.132 8.131c-1.953 1.953-1.953 5.118 0 7.071.976.976 2.256 1.464 3.535 1.464s2.56-.488 3.535-1.464l8.132-8.131c1.953-1.953 1.953-5.118 0-7.071-1.951-1.952-5.119-1.952-7.07 0z" fill="#11385b"/></g></g></g></g></g><g fill="#17B794"><path d="m59.65 205.236c-2.762 0-5-2.239-5-5 0-3.309-2.691-6-6-6-2.762 0-5-2.239-5-5s2.238-5 5-5c3.309 0 6-2.691 6-6 0-2.761 2.238-5 5-5s5 2.239 5 5c0 3.309 2.691 6 6 6 2.762 0 5 2.239 5 5s-2.238 5-5 5c-3.309 0-6 2.691-6 6 0 2.762-2.238 5-5 5z"/><path d="m445.218 294.395c-2.762 0-5-2.239-5-5 0-3.309-2.691-6-6-6-2.762 0-5-2.239-5-5s2.238-5 5-5c3.309 0 6-2.691 6-6 0-2.761 2.238-5 5-5s5 2.239 5 5c0 3.309 2.691 6 6 6 2.762 0 5 2.239 5 5s-2.238 5-5 5c-3.309 0-6 2.691-6 6 0 2.761-2.239 5-5 5z"/><path d="m321.302 453.35c-2.762 0-5-2.239-5-5 0-3.309-2.691-6-6-6-2.762 0-5-2.239-5-5s2.238-5 5-5c3.309 0 6-2.692 6-6 0-2.761 2.238-5 5-5s5 2.239 5 5c0 3.309 2.691 6 6 6 2.762 0 5 2.239 5 5s-2.238 5-5 5c-3.309 0-6 2.691-6 6 0 2.761-2.239 5-5 5z"/></g><path d="m445.218 162.592c-1.279 0-2.56-.488-3.535-1.464-1.953-1.953-1.953-5.119 0-7.071l10-10c1.951-1.952 5.119-1.952 7.07 0 1.953 1.953 1.953 5.119 0 7.071l-10 10c-.976.976-2.256 1.464-3.535 1.464z" fill="#2a719b"/><path d="m83.492 244.579c-1.279 0-2.56-.488-3.535-1.464-1.953-1.953-1.953-5.119 0-7.071l10-10c1.951-1.952 5.119-1.952 7.07 0 1.953 1.953 1.953 5.119 0 7.071l-10 10c-.975.976-2.256 1.464-3.535 1.464z" fill="#2a719b"/></g></g></svg>