<svg id="Capa_1" enable-background="new 0 0 512 512" height="512" viewBox="0 0 512 512" width="512" xmlns="http://www.w3.org/2000/svg" xmlns:xlink="http://www.w3.org/1999/xlink"><linearGradient id="SVGID_1_" gradientUnits="userSpaceOnUse" x1="8.753" x2="524.202" y1="401.161" y2="103.566"><stop offset="0" stop-color="#d2deff" stop-opacity="0"/><stop offset=".459" stop-color="#cee2fd" stop-opacity=".67"/><stop offset=".6852" stop-color="#c9e7fa"/></linearGradient><g><g><path d="m418.32 2.5c-55.666-9.521-178.298 12.183-200.004 105.017-14.431 61.722-14.007 112.075-50.427 113.02-21.67.562-32.97-44.31-62.889-48.001-39.047-4.817-66.145 27.695-83.057 57.138-37.205 64.772-25.571 174.918 23.354 228.632 118.488 130.086 259.197-5.952 319.358-112.309 38.585-68.213 125.637-123.352 143.767-200.248 15.177-64.376-18.503-131.003-90.102-143.249z" fill="url(#SVGID_1_)"/></g><g><path d="m385.25 487.741h-257.5c-5.523 0-10-4.477-10-10v-423.482c0-5.523 4.477-10 10-10h257.5c5.523 0 10 4.477 10 10v423.481c0 5.524-4.477 10.001-10 10.001z" fill="#bae1f8"/><g><g><path d="m385.25 467.741h-257.5c-5.523 0-10-4.477-10-10v-423.482c0-5.523 4.477-10 10-10h257.5c5.523 0 10 4.477 10 10v423.481c0 5.524-4.477 10.001-10 10.001z" fill="#73aacf"/><path d="m367.167 419.833h-221.334c-2.761 0-5-2.239-5-5v-229c0-2.761 2.239-5 5-5h221.333c2.761 0 5 2.239 5 5v229c.001 2.762-2.238 5-4.999 5z" fill="#2a719b"/><path d="m395.25 74.5h-173.63v-50.241h163.63c5.523 0 10 4.477 10 10z" fill="#226191"/><path d="m385.25 19.259h-257.5c-8.271 0-15 6.729-15 15v423.481c0 8.271 6.729 15 15 15h180.25c2.761 0 5-2.239 5-5s-2.239-5-5-5h-180.25c-2.757 0-5-2.243-5-5v-423.481c0-2.757 2.243-5 5-5h257.5c2.757 0 5 2.243 5 5v35.241h-163.63v-10.439c0-2.761-2.239-5-5-5s-5 2.239-5 5v15.439c0 2.761 2.239 5 5 5h168.63v378.241c0 2.757-2.243 5-5 5h-43.25c-2.761 0-5 2.239-5 5s2.239 5 5 5h43.25c8.271 0 15-6.729 15-15v-423.482c0-8.271-6.729-15-15-15z" fill="#11385b"/><g><g><g><path d="m196.646 155.965h-26.786c-2.761 0-5-2.239-5-5v-26.787c0-2.761 2.239-5 5-5h26.787c2.761 0 5 2.239 5 5v26.787c-.001 2.761-2.239 5-5.001 5zm-21.786-10h16.787v-16.787h-16.787z" fill="#fff"/></g></g><g><path d="m179.592 107.689v21.221c0 2.761-2.239 5-5 5h-21.221c-2.761 0-5-2.239-5-5v-21.221c0-2.761 2.239-5 5-5h21.221c2.761 0 5 2.238 5 5z" fill="#2a719b"/></g></g><g><g><g><path d="m190.536 206.058v21.221c0 2.761-2.239 5-5 5h-21.221c-2.761 0-5-2.239-5-5v-21.221c0-2.761 2.239-5 5-5h21.221c2.761 0 5 2.239 5 5z" fill="#fff"/></g><g><g><path d="m221.757 206.058v21.221c0 2.761-2.239 5-5 5h-21.221c-2.761 0-5-2.239-5-5v-21.221c0-2.761 2.239-5 5-5h21.221c2.761 0 5 2.239 5 5z" fill="#73aacf"/></g></g><g><path d="m252.978 206.058v21.221c0 2.761-2.239 5-5 5h-21.221c-2.761 0-5-2.239-5-5v-21.221c0-2.761 2.239-5 5-5h21.221c2.761 0 5 2.239 5 5z" fill="#fff"/></g><g><path d="m284.199 206.058v21.221c0 2.761-2.239 5-5 5h-21.221c-2.761 0-5-2.239-5-5v-21.221c0-2.761 2.239-5 5-5h21.221c2.761 0 5 2.239 5 5z" fill="#bae1f8"/></g><g><path d="m315.42 206.058v21.221c0 2.761-2.239 5-5 5h-21.221c-2.761 0-5-2.239-5-5v-21.221c0-2.761 2.239-5 5-5h21.221c2.761 0 5 2.239 5 5z" fill="#3e85a9"/></g><g><path d="m346.641 206.058v21.221c0 2.761-2.239 5-5 5h-21.221c-2.761 0-5-2.239-5-5v-21.221c0-2.761 2.239-5 5-5h21.221c2.761 0 5 2.239 5 5z" fill="#fff"/></g></g><g><g><path d="m190.536 237.279v21.221c0 2.761-2.239 5-5 5h-21.221c-2.761 0-5-2.239-5-5v-21.221c0-2.761 2.239-5 5-5h21.221c2.761 0 5 2.239 5 5z" fill="#226191"/></g><g><path d="m221.757 237.279v21.221c0 2.761-2.239 5-5 5h-21.221c-2.761 0-5-2.239-5-5v-21.221c0-2.761 2.239-5 5-5h21.221c2.761 0 5 2.239 5 5z" fill="#bae1f8"/></g><g><path d="m252.978 237.279v21.221c0 2.761-2.239 5-5 5h-21.221c-2.761 0-5-2.239-5-5v-21.221c0-2.761 2.239-5 5-5h21.221c2.761 0 5 2.239 5 5z" fill="#2d719b"/></g><g><path d="m284.199 237.279v21.221c0 2.761-2.239 5-5 5h-21.221c-2.761 0-5-2.239-5-5v-21.221c0-2.761 2.239-5 5-5h21.221c2.761 0 5 2.239 5 5z" fill="#226191"/></g><g><path d="m315.42 237.279v21.221c0 2.761-2.239 5-5 5h-21.221c-2.761 0-5-2.239-5-5v-21.221c0-2.761 2.239-5 5-5h21.221c2.761 0 5 2.239 5 5z" fill="#bae1f8"/></g><g><path d="m346.641 237.279v21.221c0 2.761-2.239 5-5 5h-21.221c-2.761 0-5-2.239-5-5v-21.221c0-2.761 2.239-5 5-5h21.221c2.761 0 5 2.239 5 5z" fill="#a9d2ea"/></g></g><g><g><g><g><path d="m190.536 268.5v21.221c0 2.761-2.239 5-5 5h-21.221c-2.761 0-5-2.239-5-5v-21.221c0-2.761 2.239-5 5-5h21.221c2.761 0 5 2.239 5 5z" fill="#11385b"/></g></g></g><g><path d="m221.757 268.5v21.221c0 2.761-2.239 5-5 5h-21.221c-2.761 0-5-2.239-5-5v-21.221c0-2.761 2.239-5 5-5h21.221c2.761 0 5 2.239 5 5z" fill="#3e85a9"/></g><g><path d="m252.978 268.5v21.221c0 2.761-2.239 5-5 5h-21.221c-2.761 0-5-2.239-5-5v-21.221c0-2.761 2.239-5 5-5h21.221c2.761 0 5 2.239 5 5z" fill="#fff"/></g><g><g><path d="m284.199 268.5v21.221c0 2.761-2.239 5-5 5h-21.221c-2.761 0-5-2.239-5-5v-21.221c0-2.761 2.239-5 5-5h21.221c2.761 0 5 2.239 5 5z" fill="#73aacf"/></g></g><g><path d="m315.42 268.5v21.221c0 2.761-2.239 5-5 5h-21.221c-2.761 0-5-2.239-5-5v-21.221c0-2.761 2.239-5 5-5h21.221c2.761 0 5 2.239 5 5z" fill="#3e85a9"/></g><g><g><path d="m346.641 268.5v21.221c0 2.761-2.239 5-5 5h-21.221c-2.761 0-5-2.239-5-5v-21.221c0-2.761 2.239-5 5-5h21.221c2.761 0 5 2.239 5 5z" fill="#73aacf"/></g></g></g><g><g><g><path d="m190.536 299.721v21.221c0 2.761-2.239 5-5 5h-21.221c-2.761 0-5-2.239-5-5v-21.221c0-2.761 2.239-5 5-5h21.221c2.761 0 5 2.239 5 5z" fill="#73aacf"/></g></g></g></g><g fill="#a9d2ea"><path d="m187.92 59.061h-34.882c-2.761 0-5-2.239-5-5s2.239-5 5-5h34.882c2.761 0 5 2.239 5 5s-2.239 5-5 5z"/><g><path d="m365.317 113.567h-24.882c-2.761 0-5-2.239-5-5s2.239-5 5-5h24.882c2.761 0 5 2.239 5 5s-2.238 5-5 5z"/><path d="m365.317 129.178h-24.882c-2.761 0-5-2.239-5-5s2.239-5 5-5h24.882c2.761 0 5 2.239 5 5s-2.238 5-5 5z"/><path d="m365.317 144.788h-24.882c-2.761 0-5-2.239-5-5s2.239-5 5-5h24.882c2.761 0 5 2.239 5 5s-2.238 5-5 5z"/></g><path d="m362.923 60.037c-1.28 0-2.559-.488-3.536-1.464l-5.657-5.657c-.938-.938-1.464-2.209-1.464-3.536s.527-2.598 1.465-3.536l5.657-5.657c1.953-1.952 5.119-1.952 7.071 0 1.953 1.953 1.953 5.118 0 7.071l-2.121 2.121 2.122 2.122c1.953 1.953 1.953 5.119 0 7.071-.978.976-2.257 1.465-3.537 1.465z"/><path d="m343.625 60.037c-1.28 0-2.559-.488-3.536-1.465l-5.657-5.657c-1.953-1.953-1.953-5.118 0-7.071l5.657-5.657c1.953-1.952 5.118-1.952 7.071 0 1.953 1.953 1.953 5.119 0 7.071l-2.122 2.121 2.122 2.122c1.953 1.953 1.953 5.118 0 7.071-.975.976-2.255 1.465-3.535 1.465z"/><g><path d="m167.565 446.5h-14.882c-2.761 0-5-2.239-5-5s2.239-5 5-5h14.882c2.761 0 5 2.239 5 5s-2.239 5-5 5z"/><path d="m215.753 446.5h-14.882c-2.761 0-5-2.239-5-5s2.239-5 5-5h14.882c2.761 0 5 2.239 5 5s-2.239 5-5 5z"/><path d="m263.941 446.5h-14.882c-2.761 0-5-2.239-5-5s2.239-5 5-5h14.882c2.761 0 5 2.239 5 5s-2.239 5-5 5z"/><path d="m312.129 446.5h-14.882c-2.761 0-5-2.239-5-5s2.239-5 5-5h14.882c2.761 0 5 2.239 5 5s-2.238 5-5 5z"/><path d="m360.317 446.5h-14.882c-2.761 0-5-2.239-5-5s2.239-5 5-5h14.882c2.761 0 5 2.239 5 5s-2.238 5-5 5z"/></g></g></g><g fill="#17B794"><path d="m437.5 195.178c-2.761 0-5-2.239-5-5 0-3.309-2.691-6-6-6-2.761 0-5-2.239-5-5s2.239-5 5-5c3.309 0 6-2.691 6-6 0-2.761 2.239-5 5-5s5 2.239 5 5c0 3.309 2.691 6 6 6 2.761 0 5 2.239 5 5s-2.239 5-5 5c-3.309 0-6 2.691-6 6 0 2.761-2.239 5-5 5z"/><path d="m69.5 320.721c-2.761 0-5-2.239-5-5 0-3.309-2.691-6-6-6-2.761 0-5-2.239-5-5s2.239-5 5-5c3.309 0 6-2.691 6-6 0-2.761 2.239-5 5-5s5 2.239 5 5c0 3.309 2.691 6 6 6 2.761 0 5 2.239 5 5s-2.239 5-5 5c-3.309 0-6 2.691-6 6 0 2.761-2.239 5-5 5z"/><path d="m75.5 75.061c-2.761 0-5-2.239-5-5 0-3.309-2.691-6-6-6-2.761 0-5-2.239-5-5s2.239-5 5-5c3.309 0 6-2.691 6-6 0-2.761 2.239-5 5-5s5 2.239 5 5c0 3.309 2.691 6 6 6 2.761 0 5 2.239 5 5s-2.239 5-5 5c-3.309 0-6 2.691-6 6 0 2.761-2.239 5-5 5z"/></g><path d="m443.5 251.058c-1.28 0-2.559-.488-3.536-1.464-1.953-1.953-1.953-5.119 0-7.071l10-10c1.953-1.952 5.118-1.952 7.071 0 1.953 1.953 1.953 5.119 0 7.071l-10 10c-.976.976-2.255 1.464-3.535 1.464z" fill="#2a719b"/><path d="m59.5 396.5c-1.28 0-2.559-.488-3.536-1.464-1.953-1.953-1.953-5.119 0-7.071l10-10c1.953-1.952 5.118-1.952 7.071 0 1.953 1.953 1.953 5.119 0 7.071l-10 10c-.976.976-2.255 1.464-3.535 1.464z" fill="#2a719b"/></g></g></g></svg>