<svg id="Capa_1" enable-background="new 0 0 512 512" height="512" viewBox="0 0 512 512" width="512" xmlns="http://www.w3.org/2000/svg" xmlns:xlink="http://www.w3.org/1999/xlink"><linearGradient id="SVGID_1_" gradientUnits="userSpaceOnUse" x1="0" x2="512" y1="256" y2="256"><stop offset="0" stop-color="#d2deff" stop-opacity="0"/><stop offset=".459" stop-color="#cee2fd" stop-opacity=".67"/><stop offset=".6852" stop-color="#c9e7fa"/></linearGradient><g><g><path d="m451.798 43.963c-160.556-97.869-410.51-8.611-439.594 61.949-38.908 94.394 26.578 110.528 38.743 187.874 9.761 62.061-51.182 121.495-16.394 176.282 37.883 59.663 163.465 44.681 211.198 16.447 87.376-51.683 43.309-112.012 84.684-187.299 39.407-71.707 116.244-42.625 160.961-99.99 42.5-54.521 14.31-122.402-39.598-155.263z" fill="url(#SVGID_1_)"/></g><g><path d="m450.427 113.75h-388.859c-7.139 0-12.926 5.787-12.926 12.926v270.364c0 7.139 5.787 12.926 12.926 12.926h152.283l-4.928 23.947c-1.992 9.681-8.692 17.377-17.412 20.928-4.321 1.76-7.254 5.827-7.254 10.493v.2c0 6.194 5.022 11.216 11.216 11.216h121.05c6.194 0 11.216-5.022 11.216-11.216v-.2c0-4.666-2.933-8.733-7.254-10.493-8.719-3.551-15.419-11.247-17.412-20.928l-4.928-23.947h152.283c7.139 0 12.926-5.787 12.926-12.926v-270.364c-.001-7.139-5.788-12.926-12.927-12.926z" fill="#bae1f8"/><g><g><g><g><path d="m195.473 456.75h121.05c6.194 0 11.216-5.022 11.216-11.216v-.2c0-4.666-2.933-8.733-7.254-10.493-8.719-3.551-15.419-11.247-17.412-20.928l-6.611-32.121h-80.929l-6.611 32.121c-1.992 9.681-8.692 17.377-17.411 20.928-4.321 1.76-7.254 5.827-7.254 10.493v.2c0 6.195 5.021 11.216 11.216 11.216z" fill="#a9d2ea"/><path d="m301.858 407.97h-91.72l5.4-26.18h80.92z" fill="#73aacf"/><path d="m450.427 389.966h-388.859c-7.139 0-12.926-5.787-12.926-12.926v-270.364c0-7.139 5.787-12.926 12.926-12.926h388.859c7.139 0 12.926 5.787 12.926 12.926v270.364c0 7.139-5.787 12.926-12.926 12.926z" fill="#73aacf"/><path d="m463.358 168.18v169h-257.36v-164c0-2.761 2.239-5 5-5z" fill="#fff"/><g><path d="m316.584 306.323h-76.52c-2.762 0-5-2.239-5-5s2.238-5 5-5h76.52c2.762 0 5 2.239 5 5s-2.238 5-5 5z" fill="#2d719b"/></g><path d="m406.751 228.51c-1.92-8.19-5.71-15.11-11.34-20.75-6.15-6.15-13.83-10.5-23.06-13.07-20.03-5.57-41.42-5.44-61.71-1.3-16.84 3.43-35.49 9.77-45.72 24.55-13.06 18.87-1.05 47.86 22.87 47.86 29.73 0 41.41-38.3 15.75-54.19 6.98-2.8 20.27-6.67 33.44-2.54 10.25 3.21 17.28 12.77 17.31 23.51v30.14c0 6.92-3.27 12.37-9.8 16.34-27.03 16.42-64.9 17.68-85.72 43.81-3.37 4.24-5.82 9.12-7.36 14.31h53.5c3.42-14.32 20.79-21.69 29.77-27.44 10-6.15 16.53-11.79 19.61-16.92v44.36h55.34v-75.23c0-14.09-.96-25.23-2.88-33.44z" fill="#17B794"/><path d="m92.998 93.75h-31.43c-7.139 0-12.926 5.787-12.926 12.926v270.364c0 7.139 5.787 12.926 12.926 12.926h31.429v-296.216z" fill="#2a719b"/><path d="m463.353 132.25v-25.574c0-7.139-5.787-12.926-12.926-12.926h-388.859c-7.139 0-12.926 5.787-12.926 12.926v25.574z" fill="#226191"/><path d="m48.642 337.178v39.862c0 7.139 5.787 12.926 12.926 12.926h388.859c7.139 0 12.926-5.787 12.926-12.926v-39.862z" fill="#a9d2ea"/><path d="m463.35 308c2.761 0 5-2.239 5-5v-196.32c0-9.887-8.039-17.93-17.92-17.93h-388.86c-9.886 0-17.93 8.043-17.93 17.93v270.36c0 9.887 8.043 17.93 17.93 17.93h146.146l-3.691 17.935c-1.609 7.819-6.992 14.288-14.4 17.306-.011.005-.022.01-.034.015-.022.009-.044.02-.066.03-6.24 2.588-10.268 8.492-10.268 15.078v.201c0 8.941 7.274 16.216 16.216 16.216h121.05c8.941 0 16.216-7.274 16.216-16.216v-.2c0-6.587-4.029-12.493-10.271-15.08-.021-.009-.04-.019-.061-.028-.012-.005-.024-.011-.036-.016-7.408-3.017-12.791-9.486-14.4-17.305l-3.691-17.935h146.15c9.881 0 17.92-8.043 17.92-17.93v-39.862c0-2.761-2.239-5-5-5h-409.71v-225.499c0-4.373 3.557-7.93 7.93-7.93h388.86c4.367 0 7.92 3.558 7.92 7.93v196.32c0 2.761 2.239 5 5 5zm-140.612 137.534c0 3.427-2.789 6.216-6.216 6.216h-121.05c-3.427 0-6.216-2.789-6.216-6.216v-.201c0-2.272 1.31-4.347 3.389-5.493h126.705c2.078 1.146 3.388 3.221 3.388 5.493zm135.612-103.356v34.862c0 4.373-3.553 7.93-7.92 7.93h-202.51c-2.761 0-5 2.239-5 5s2.239 5 5 5h46.15l4.106 19.95c1.15 5.587 3.659 10.686 7.207 14.92h-98.769c3.547-4.234 6.057-9.333 7.207-14.92l4.928-23.942c.303-1.472-.072-3.002-1.022-4.167s-2.373-1.841-3.875-1.841h-152.282c-4.373 0-7.93-3.558-7.93-7.93v-34.862z" fill="#11385b"/></g></g><g><path d="m432.251 199.3h-23.285c-2.761 0-5-2.239-5-5v-41.573c0-2.761 2.239-5 5-5h23.285c2.761 0 5 2.239 5 5v41.573c0 2.762-2.239 5-5 5z" fill="#73aacf"/><path d="m437.251 164.8h-33.285v-12.073c0-2.761 2.239-5 5-5h23.285c2.761 0 5 2.239 5 5z" fill="#226191"/></g><g><g><path d="m174.979 212.25h-53.285c-2.761 0-5-2.239-5-5v-41.573c0-2.761 2.239-5 5-5h53.285c2.761 0 5 2.239 5 5v41.573c0 2.761-2.239 5-5 5z" fill="#fff"/><path d="m179.979 177.75h-63.285v-12.073c0-2.761 2.239-5 5-5h53.285c2.761 0 5 2.239 5 5z" fill="#226191"/></g><g><path d="m174.979 298.823h-53.285c-2.761 0-5-2.239-5-5v-76.573c0-2.761 2.239-5 5-5h53.285c2.761 0 5 2.239 5 5v76.573c0 2.762-2.239 5-5 5z" fill="#fff"/><path d="m179.979 229.323h-63.285v-12.073c0-2.761 2.239-5 5-5h53.285c2.761 0 5 2.239 5 5z" fill="#226191"/></g></g><path d="m404.147 287.77 5.233 15.699c.804 2.411 3.864 3.133 5.661 1.336l10.466-10.466c1.797-1.797 1.075-4.857-1.336-5.661l-15.699-5.233c-2.673-.89-5.216 1.653-4.325 4.325z" fill="#226191"/><g><path d="m440.905 251.674h-56.52c-2.762 0-5-2.239-5-5s2.238-5 5-5h56.52c2.762 0 5 2.239 5 5s-2.238 5-5 5z" fill="#3e85a9"/></g><g><path d="m440.905 234.75h-56.52c-2.762 0-5-2.239-5-5s2.238-5 5-5h56.52c2.762 0 5 2.239 5 5s-2.238 5-5 5z" fill="#3e85a9"/></g><g><path d="m240.064 288.322c-2.761 0-5-2.239-5-5v-.115c0-2.761 2.239-5 5-5s5 2.239 5 5v.115c0 2.761-2.238 5-5 5z" fill="#3e85a9"/></g><g><path d="m253.664 288.322c-2.761 0-5-2.239-5-5v-.115c0-2.761 2.239-5 5-5s5 2.239 5 5v.115c0 2.761-2.239 5-5 5z" fill="#3e85a9"/></g></g><g><g fill="#17B794"><path d="m94.694 450.841c-2.761 0-5-2.239-5-5 0-3.309-2.691-6-6-6-2.761 0-5-2.239-5-5s2.239-5 5-5c3.309 0 6-2.691 6-6 0-2.761 2.239-5 5-5s5 2.239 5 5c0 3.309 2.691 6 6 6 2.761 0 5 2.239 5 5s-2.239 5-5 5c-3.309 0-6 2.691-6 6 0 2.761-2.238 5-5 5z"/><path d="m320.678 62.25c-2.761 0-5-2.239-5-5 0-3.309-2.691-6-6-6-2.761 0-5-2.239-5-5s2.239-5 5-5c3.309 0 6-2.691 6-6 0-2.761 2.239-5 5-5s5 2.239 5 5c0 3.309 2.691 6 6 6 2.761 0 5 2.239 5 5s-2.239 5-5 5c-3.309 0-6 2.691-6 6 0 2.761-2.239 5-5 5z"/><path d="m403.966 446.271c-2.761 0-5-2.239-5-5 0-3.309-2.691-6-6-6-2.761 0-5-2.239-5-5s2.239-5 5-5c3.309 0 6-2.691 6-6 0-2.761 2.239-5 5-5s5 2.239 5 5c0 3.309 2.691 6 6 6 2.761 0 5 2.239 5 5s-2.239 5-5 5c-3.309 0-6 2.691-6 6 0 2.761-2.239 5-5 5z"/><path d="m258.664 68.213c-1.28 0-2.559-.488-3.536-1.464-1.953-1.953-1.953-5.119 0-7.071l10-10c1.953-1.952 5.118-1.952 7.071 0 1.953 1.953 1.953 5.119 0 7.071l-10 10c-.976.976-2.255 1.464-3.535 1.464z"/></g><path d="m148.336 433.841c-1.28 0-2.559-.488-3.536-1.464-1.953-1.953-1.953-5.119 0-7.071l10-10c1.953-1.952 5.118-1.952 7.071 0 1.953 1.953 1.953 5.119 0 7.071l-10 10c-.975.976-2.255 1.464-3.535 1.464z" fill="#2a719b"/></g></g></g></g></svg>