<svg id="Capa_1" enable-background="new 0 0 512 512" height="512" viewBox="0 0 512 512" width="512" xmlns="http://www.w3.org/2000/svg" xmlns:xlink="http://www.w3.org/1999/xlink"><linearGradient id="SVGID_1_" gradientTransform="matrix(1 0 0 -1 0 514)" gradientUnits="userSpaceOnUse" x1="-.001" x2="512" y1="258" y2="258"><stop offset="0" stop-color="#d2deff" stop-opacity="0"/><stop offset=".459" stop-color="#cee2fd" stop-opacity=".67"/><stop offset=".6852" stop-color="#c9e7fa"/></linearGradient><g><path d="m451.798 43.963c-160.556-97.869-410.51001-8.611-439.59399 61.949-38.908 94.394 26.578 110.528 38.743 187.87401 9.761 62.061-51.182 121.495-16.394 176.28198 37.883 59.66302 163.465 44.68103 211.198 16.44699 87.376-51.68301 43.30899-112.01199 84.68399-187.29898 39.40701-71.707 116.24402-42.625 160.961-99.98999 42.5-54.52101 14.30999-122.40201-39.598-155.26301z" fill="url(#SVGID_1_)"/><path d="m462.01099 218.39799c0-69.53099-56.366-125.898-125.89801-125.898-30.435 0-58.34601 10.799-80.114 28.775-21.76598-17.97499-49.67798-28.77499-80.11298-28.77499-69.531 0-125.898 56.366-125.898 125.89801 0 54.38599 34.486 100.716 82.783 118.319-1.746 8.35501-2.66901 17.01199-2.66901 25.88501 0 69.53101 56.366 125.89801 125.89801 125.89801s125.89801-56.366 125.89801-125.89801c0-8.87299-.923-17.53-2.66901-25.88501 48.29599-17.604 82.78199-63.93301 82.78199-118.31902z" fill="#bae1f8"/><circle cx="256" cy="337.602" fill="#3e85a9" r="125.898"/><circle cx="256" cy="337.602" fill="#3e85a9" r="92.886"/><circle cx="175.887" cy="193.398" fill="#2d719b" r="125.898"/><path d="m299.112 219.28c-11.93201 57.116-62.57401 100.01401-123.22501 100.01401-15.147 0-29.66299-2.67001-43.112-7.573 11.931-57.11601 62.57401-100.01502 123.22501-100.01502 15.147 0 29.66299 2.67101 43.112 7.57401z" fill="#73aacf"/><circle cx="336.113" cy="193.398" fill="#17B794" r="125.898"/><path d="m379.22501 311.72c-13.448 4.90298-27.965 7.573-43.112 7.573-60.651 0-111.29401-42.89801-123.22501-100.01401 13.448-4.903 27.965-7.573 43.112-7.573 60.651 0 111.29401 42.89901 123.22501 100.01401z" fill="#226191"/><path d="m256 96.27899s45.78201 43.48166 45.78201 97.119-45.78201 97.11901-45.78201 97.11901-45.782-43.48166-45.782-97.119c0-63.26116 45.782-97.11901 45.782-97.11901z" fill="#bae1f8"/><g><path d="m299.112 219.28c-5.939 28.45599-21.50201 53.388-43.112 71.237-21.60899-17.849-37.173-42.78101-43.112-71.237 13.448-4.903 27.965-7.573 43.112-7.573 15.147-.00101 29.66299 2.67 43.112 7.573z" fill="#fff"/></g><path d="m467.01199 193.397c0-72.177-58.72101-130.897-130.89798-130.897-29.01099 0-57.315 9.713-80.16 27.418-22.14902-17.177-49.93301-27.418-80.06702-27.418-72.177 0-130.89799 58.721-130.89799 130.897 0 54.936 34.02 102.06799 82.096 121.45599-1.301 7.39099-1.983 14.992-1.983 22.75 0 72.17701 58.721 130.89701 130.898 130.89701 29.31799 0 57.03601-9.479 80.15698-27.414 2.18201-1.69299 2.57901-4.83401.88699-7.01599-1.69299-2.18201-4.83301-2.57999-7.01599-.88699-21.35098 16.56298-46.94998 25.31698-74.02798 25.31698-66.664 0-120.89801-54.23401-120.89801-120.897 0-6.57401.535-13.02399 1.55-19.31601 12.392 3.90201 25.571 6.01001 39.235 6.01001 30.155 0 57.957-10.255 80.11301-27.45401 22.15601 17.19901 49.95801 27.45401 80.11301 27.45401 13.664 0 26.84299-2.108 39.23502-6.01001 1.01501 6.29199 1.54999 12.742 1.54999 19.31601 0 26.29001-8.293 51.285-23.98199 72.285-1.65201 2.21201-1.19901 5.345 1.01401 6.99799 2.211 1.65201 5.345 1.198 6.99799-1.01401 16.98999-22.73999 25.97101-49.806 25.97101-78.26999 0-7.758-.68301-15.35901-1.983-22.75 48.07496-19.38599 82.09595-66.519 82.09595-121.45499zm-412.02299 0c0-66.663 54.234-120.897 120.89799-120.897 66.66299 0 120.897 54.234 120.897 120.897 0 6.57401-.535 13.024-1.54999 19.31599-12.392-3.901-25.57098-6.009-39.23401-6.009s-26.843 2.108-39.23401 6.009c-1.015-6.29201-1.55-12.742-1.55-19.31599 0-25.23199 7.69299-49.405 22.248-69.906 1.599-2.252 1.069-5.373-1.183-6.972-2.25101-1.6-5.373-1.068-6.972 1.183-15.76199 22.202-24.093 48.37701-24.093 75.695 0 7.758.683 15.35899 1.983 22.74899-38.20601 15.407-67.537 48.33398-77.968 88.78-43.56698-18.29299-74.24198-61.39399-74.24198-111.52899zm201.011 90.45999c-18.007-15.966-31.229-37.209-37.217-61.284 11.73-3.804 24.23601-5.869 37.217-5.869s25.487 2.065 37.21701 5.869c-5.98801 24.075-19.21002 45.318-37.21701 61.284zm-80.11301 30.439c-12.981 0-25.487-2.065-37.217-5.86899 9.26601-37.25101 35.84801-67.73001 70.675-82.353 6.468 25.08 20.202 47.271 38.813 64.18698-20.174 15.08903-45.19798 24.03501-72.271 24.03501zm160.22602 0c-27.07401 0-52.09702-8.94601-72.271-24.03601 18.61099-16.91501 32.345-39.10699 38.81299-64.187 34.827 14.62399 61.409 45.10201 70.67502 82.35298-11.72901 3.80503-24.23502 5.87003-37.21701 5.87003zm46.65698-9.36899c-10.431-40.44598-39.76199-73.373-77.96899-88.78 1.29999-7.39101 1.983-14.992 1.983-22.74899 0-38.366-16.59201-72.929-42.97601-96.892 20.78802-15.51701 46.23702-24.00601 72.30502-24.00601 66.664 0 120.89801 54.234 120.89801 120.897.00097 50.135-30.67502 93.236-74.24103 111.53z" fill="#11385b"/><circle cx="169.916" cy="154.215" fill="#a9d2ea" r="5.971"/><circle cx="169.916" cy="172.278" fill="#a9d2ea" r="5.971"/><circle cx="169.916" cy="190.342" fill="#a9d2ea" r="5.971"/><g fill="#fff"><circle cx="274.063" cy="343.573" r="5.971"/><circle cx="256" cy="343.573" r="5.971"/><circle cx="237.937" cy="343.573" r="5.971"/><circle cx="367.629" cy="166.307" r="5.971"/><circle cx="354.857" cy="179.08" r="5.971"/><circle cx="342.084" cy="191.852" r="5.971"/></g><path d="m257.32001 59.5c-1.28 0-2.55901-.488-3.536-1.465-1.953-1.952-1.953-5.118 0-7.07l9.99998-10c1.95099-1.953 5.11899-1.953 7.07001 0 1.953 1.952 1.953 5.118 0 7.07l-10 10c-.974.977-2.25399 1.465-3.53399 1.465z" fill="#2a719b"/><path d="m393.862 429.957c-1.27899 0-2.56-.48801-3.535-1.465-1.953-1.952-1.953-5.11801 0-7.07001l10-10c1.95099-1.953 5.11899-1.953 7.07001 0 1.953 1.952 1.953 5.11801 0 7.07001l-10 10c-.97501.97699-2.25501 1.465-3.53501 1.465z" fill="#17B794"/><path d="m88 355.17999c-2.761 0-5-2.23801-5-5 0-3.30899-2.691-6-6-6-2.761 0-5-2.23801-5-5s2.239-5 5-5c3.309 0 6-2.69101 6-6 0-2.76199 2.239-5 5-5s5 2.23801 5 5c0 3.30899 2.691 6 6 6 2.761 0 5 2.23801 5 5s-2.239 5-5 5c-3.309 0-6 2.69101-6 6 0 2.76102-2.239 5-5 5z" fill="#17B794"/><path d="m425 382.17999c-2.76199 0-5-2.23801-5-5 0-3.30899-2.69101-6-6-6-2.76199 0-5-2.23801-5-5s2.23801-5 5-5c3.30899 0 6-2.69101 6-6 0-2.76199 2.23801-5 5-5s5 2.23801 5 5c0 3.30899 2.69101 6 6 6 2.76199 0 5 2.23801 5 5s-2.23801 5-5 5c-3.30899 0-6 2.69101-6 6 0 2.76102-2.23801 5-5 5z" fill="#17B794"/><path d="m217.51401 50.5c-2.761 0-5-2.238-5-5 0-3.309-2.69099-6-6-6-2.761 0-5-2.238-5-5s2.239-5 5-5c3.30901 0 6-2.691 6-6 0-2.762 2.239-5 5-5s5 2.238 5 5c0 3.309 2.69099 6 6 6 2.761 0 5 2.238 5 5s-2.239 5-5 5c-3.30901 0-6 2.691-6 6 0 2.762-2.23902 5-5 5z" fill="#17B794"/></g></svg>