<svg id="Capa_1" enable-background="new 0 0 512 512" height="512" viewBox="0 0 512 512" width="512" xmlns="http://www.w3.org/2000/svg" xmlns:xlink="http://www.w3.org/1999/xlink"><linearGradient id="SVGID_1_" gradientUnits="userSpaceOnUse" x1="68.572" x2="395.005" y1="430.558" y2="41.53"><stop offset="0" stop-color="#d2deff" stop-opacity="0"/><stop offset=".459" stop-color="#cee2fd" stop-opacity=".67"/><stop offset=".6852" stop-color="#c9e7fa"/></linearGradient><g><g><path d="m16.074 302.88c18.727 64.003 72.707 194.564 163.922 182.845 91.486-11.755 55.758-129.725 139.508-145.894 36.867-7.118 61.857 56.689 98.806 54.704 47.588-2.557 71.81-49.663 85.108-89.264 28.197-83.968-14.029-226.352-112.858-251.011-86.244-21.519-96.332 83.855-171.322 53.248-42.149-17.203-37.938-68.576-89.272-78.942-155.299-31.36-138.811 189.15-113.892 274.314z" fill="url(#SVGID_1_)"/></g><g><g><g><g><path d="m256 218.631c-2.762 0-5-2.238-5-5v-11.5c0-2.762 2.238-5 5-5s5 2.238 5 5v11.5c0 2.762-2.238 5-5 5z" fill="#bae1f8"/></g><g><path d="m256 181.899c-2.762 0-5-2.238-5-5v-11.5c0-2.762 2.238-5 5-5s5 2.238 5 5v11.5c0 2.762-2.238 5-5 5z" fill="#bae1f8"/></g><g><path d="m256 145.167c-2.762 0-5-2.238-5-5v-11.5c0-2.762 2.238-5 5-5s5 2.238 5 5v11.5c0 2.762-2.238 5-5 5z" fill="#bae1f8"/></g><g><path d="m256 108.435c-2.762 0-5-2.238-5-5v-11.5c0-2.762 2.238-5 5-5s5 2.238 5 5v11.5c0 2.761-2.238 5-5 5z" fill="#bae1f8"/></g><g><path d="m256 71.702c-2.762 0-5-2.238-5-5v-11.5c0-2.762 2.238-5 5-5s5 2.238 5 5v11.5c0 2.762-2.238 5-5 5z" fill="#bae1f8"/></g><g><path d="m256 476.798c-2.762 0-5-2.238-5-5v-11.5c0-2.762 2.238-5 5-5s5 2.238 5 5v11.5c0 2.762-2.238 5-5 5z" fill="#bae1f8"/></g><g><path d="m256 440.065c-2.762 0-5-2.238-5-5v-11.5c0-2.762 2.238-5 5-5s5 2.238 5 5v11.5c0 2.762-2.238 5-5 5z" fill="#bae1f8"/></g><g><path d="m256 403.333c-2.762 0-5-2.238-5-5v-11.5c0-2.762 2.238-5 5-5s5 2.238 5 5v11.5c0 2.762-2.238 5-5 5z" fill="#bae1f8"/></g><g><path d="m256 366.601c-2.762 0-5-2.238-5-5v-11.5c0-2.762 2.238-5 5-5s5 2.238 5 5v11.5c0 2.761-2.238 5-5 5z" fill="#bae1f8"/></g><g><path d="m256 329.869c-2.762 0-5-2.238-5-5v-11.5c0-2.762 2.238-5 5-5s5 2.238 5 5v11.5c0 2.762-2.238 5-5 5z" fill="#bae1f8"/></g><g><path d="m256 293.137c-2.762 0-5-2.238-5-5v-11.5c0-2.762 2.238-5 5-5s5 2.238 5 5v11.5c0 2.761-2.238 5-5 5z" fill="#bae1f8"/></g><g><path d="m256 256.404c-2.762 0-5-2.238-5-5v-11.5c0-2.762 2.238-5 5-5s5 2.238 5 5v11.5c0 2.762-2.238 5-5 5z" fill="#bae1f8"/></g></g><g><path d="m449.021 123.906-157.11 131.936c-4.759 3.996-4.759 11.32 0 15.316l157.11 131.936c6.506 5.464 16.431.838 16.431-7.658v-263.872c0-8.496-9.925-13.122-16.431-7.658z" fill="#bae1f8"/></g><g><path d="m62.979 403.094 157.11-131.936c4.759-3.996 4.759-11.32 0-15.316l-157.11-131.936c-6.506-5.464-16.431-.838-16.431 7.658v263.872c0 8.496 9.925 13.121 16.431 7.658z" fill="#bae1f8"/></g><g><g><g><path d="m256 198.631c-2.762 0-5-2.238-5-5v-11.5c0-2.762 2.238-5 5-5s5 2.238 5 5v11.5c0 2.762-2.238 5-5 5z" fill="#11385b"/></g><g><path d="m256 161.898c-2.762 0-5-2.238-5-5v-11.5c0-2.762 2.238-5 5-5s5 2.238 5 5v11.5c0 2.762-2.238 5-5 5z" fill="#11385b"/></g><g><path d="m256 125.167c-2.762 0-5-2.238-5-5v-11.5c0-2.762 2.238-5 5-5s5 2.238 5 5v11.5c0 2.762-2.238 5-5 5z" fill="#11385b"/></g><g><path d="m256 88.435c-2.762 0-5-2.238-5-5v-11.5c0-2.762 2.238-5 5-5s5 2.238 5 5v11.5c0 2.761-2.238 5-5 5z" fill="#11385b"/></g><g><path d="m256 51.702c-2.762 0-5-2.238-5-5v-11.5c0-2.762 2.238-5 5-5s5 2.238 5 5v11.5c0 2.762-2.238 5-5 5z" fill="#11385b"/></g><g><path d="m256 456.798c-2.762 0-5-2.238-5-5v-11.5c0-2.762 2.238-5 5-5s5 2.238 5 5v11.5c0 2.762-2.238 5-5 5z" fill="#11385b"/></g><g><path d="m256 420.065c-2.762 0-5-2.238-5-5v-11.5c0-2.762 2.238-5 5-5s5 2.238 5 5v11.5c0 2.762-2.238 5-5 5z" fill="#11385b"/></g><g><path d="m256 383.333c-2.762 0-5-2.238-5-5v-11.5c0-2.762 2.238-5 5-5s5 2.238 5 5v11.5c0 2.762-2.238 5-5 5z" fill="#11385b"/></g><g><path d="m256 346.601c-2.762 0-5-2.238-5-5v-11.5c0-2.762 2.238-5 5-5s5 2.238 5 5v11.5c0 2.761-2.238 5-5 5z" fill="#11385b"/></g><g><path d="m256 309.869c-2.762 0-5-2.238-5-5v-11.5c0-2.762 2.238-5 5-5s5 2.238 5 5v11.5c0 2.762-2.238 5-5 5z" fill="#11385b"/></g><g><path d="m256 273.137c-2.762 0-5-2.238-5-5v-11.5c0-2.762 2.238-5 5-5s5 2.238 5 5v11.5c0 2.761-2.238 5-5 5z" fill="#11385b"/></g><g><path d="m256 236.404c-2.762 0-5-2.238-5-5v-11.5c0-2.762 2.238-5 5-5s5 2.238 5 5v11.5c0 2.762-2.238 5-5 5z" fill="#11385b"/></g></g></g><g><g><g><path d="m449.021 103.906-157.11 131.936c-4.759 3.996-4.759 11.32 0 15.316l157.11 131.936c6.506 5.464 16.431.838 16.431-7.658v-263.872c0-8.496-9.925-13.122-16.431-7.658z" fill="#2a719b"/></g><g><g><path d="m465.452 152.456-108.416 91.044 108.416 91.044z" fill="#73aacf"/></g></g><g><g><g><path d="m455.413 390.459c-3.441.001-6.829-1.203-9.607-3.536l-157.11-131.936c-3.402-2.858-5.354-7.046-5.354-11.488 0-4.443 1.952-8.63 5.354-11.486l157.11-131.936c4.515-3.79 10.639-4.599 15.982-2.109 5.345 2.491 8.664 7.701 8.664 13.597v38.935c0 2.762-2.238 5-5 5s-5-2.238-5-5v-38.936c0-2.956-2.211-4.217-2.888-4.532-.679-.315-3.065-1.197-5.327.703l-157.11 131.936c-1.553 1.304-1.785 2.958-1.785 3.828 0 .871.232 2.526 1.785 3.83l157.11 131.936c2.262 1.9 4.648 1.019 5.327.703.677-.315 2.888-1.576 2.888-4.532v-190.936c0-2.762 2.238-5 5-5s5 2.238 5 5v190.936c0 5.896-3.319 11.105-8.664 13.597-2.055.956-4.225 1.426-6.375 1.426z" fill="#11385b"/></g></g></g></g><g><g><path d="m62.979 383.094 157.11-131.936c4.759-3.996 4.759-11.32 0-15.316l-157.11-131.936c-6.506-5.464-16.431-.838-16.431 7.658v263.872c0 8.496 9.925 13.121 16.431 7.658z" fill="#3e85a9"/></g><g><path d="m46.548 334.544 108.416-91.044-108.416-91.044z" fill="#fff"/></g><g><g><g><path d="m56.587 390.459c-2.149.001-4.32-.47-6.375-1.427-5.345-2.491-8.664-7.701-8.664-13.597v-263.871c0-5.896 3.319-11.105 8.664-13.597 5.345-2.49 11.469-1.682 15.982 2.109l157.11 131.936c3.401 2.856 5.354 7.043 5.354 11.486 0 4.442-1.951 8.63-5.354 11.488l-51.304 43.085c-2.116 1.776-5.269 1.501-7.045-.613-1.775-2.115-1.501-5.269.613-7.045l51.305-43.084c1.553-1.304 1.785-2.959 1.785-3.83 0-.87-.232-2.524-1.785-3.828l-157.11-131.936c-2.262-1.9-4.648-1.019-5.327-.703-.677.315-2.888 1.576-2.888 4.532v263.871c0 2.956 2.211 4.217 2.888 4.532.679.315 3.065 1.197 5.327-.703l79.67-66.903c2.116-1.777 5.269-1.501 7.045.613 1.775 2.115 1.501 5.269-.613 7.045l-79.67 66.903c-2.779 2.334-6.168 3.537-9.608 3.537z" fill="#11385b"/></g></g></g></g></g><g><g><path d="m223.146 426.905h-78.053c-2.762 0-5 2.239-5 5s2.238 5 5 5h78.053c2.762 0 5-2.239 5-5s-2.238-5-5-5z" fill="#bae1f8"/><path d="m198.073 391.306c2.762 0 5-2.239 5-5 0-3.646 2.967-6.613 6.613-6.613s6.613 2.967 6.613 6.613c0 2.761 2.238 5 5 5s5-2.239 5-5c0-4.518-1.818-8.615-4.755-11.613 2.936-2.998 4.755-7.095 4.755-11.613 0-9.161-7.453-16.613-16.613-16.613s-16.613 7.453-16.613 16.613c0 4.518 1.818 8.615 4.755 11.613-2.936 2.998-4.755 7.095-4.755 11.613 0 2.761 2.238 5 5 5zm11.613-34.84c3.646 0 6.613 2.967 6.613 6.613s-2.967 6.613-6.613 6.613-6.613-2.967-6.613-6.613 2.967-6.613 6.613-6.613z" fill="#bae1f8"/><g><g><g><g><g><path d="m223.166 395.494h-11.52c-2.762 0-5-2.239-5-5s2.238-5 5-5h11.52c2.762 0 5 2.239 5 5s-2.238 5-5 5z" fill="#11385b"/></g></g><g><g><path d="m191.632 395.494h-46.52c-2.762 0-5-2.239-5-5s2.238-5 5-5h46.52c2.762 0 5 2.239 5 5s-2.238 5-5 5z" fill="#11385b"/></g></g><g><g><path d="m223.166 416.827h-78.053c-2.762 0-5-2.239-5-5s2.238-5 5-5h78.053c2.762 0 5 2.239 5 5 0 2.762-2.238 5-5 5z" fill="#11385b"/></g></g></g><g><g><path d="m226.319 343.002c0-9.161-7.453-16.613-16.613-16.613s-16.613 7.453-16.613 16.613c0 4.518 1.818 8.615 4.755 11.613-2.936 2.998-4.755 7.095-4.755 11.613 0 2.761 2.238 5 5 5s5-2.239 5-5c0-3.646 2.967-6.613 6.613-6.613s6.613 2.967 6.613 6.613c0 2.761 2.238 5 5 5s5-2.239 5-5c0-4.518-1.818-8.615-4.755-11.613 2.937-2.998 4.755-7.095 4.755-11.613zm-16.613-6.613c3.646 0 6.613 2.967 6.613 6.613s-2.967 6.613-6.613 6.613-6.613-2.967-6.613-6.613 2.966-6.613 6.613-6.613z" fill="#11385b"/></g></g></g></g></g><g><path d="m288.854 426.905h78.053c2.762 0 5 2.239 5 5s-2.238 5-5 5h-78.053c-2.762 0-5-2.239-5-5s2.238-5 5-5z" fill="#bae1f8"/><path d="m318.927 386.306c0-4.518-1.818-8.615-4.755-11.613 2.936-2.998 4.755-7.095 4.755-11.613 0-9.161-7.453-16.613-16.613-16.613s-16.613 7.453-16.613 16.613c0 4.518 1.818 8.615 4.755 11.613-2.936 2.998-4.755 7.095-4.755 11.613 0 2.761 2.238 5 5 5s5-2.239 5-5c0-3.646 2.967-6.613 6.613-6.613s6.613 2.967 6.613 6.613c0 2.761 2.238 5 5 5s5-2.239 5-5zm-10-23.227c0 3.646-2.967 6.613-6.613 6.613s-6.613-2.967-6.613-6.613 2.967-6.613 6.613-6.613 6.613 2.967 6.613 6.613z" fill="#bae1f8"/><g><g><g><g><g><path d="m288.834 395.494h11.52c2.762 0 5-2.239 5-5s-2.238-5-5-5h-11.52c-2.762 0-5 2.239-5 5s2.238 5 5 5z" fill="#11385b"/></g></g><g><g><path d="m320.368 395.494h46.52c2.762 0 5-2.239 5-5s-2.238-5-5-5h-46.52c-2.762 0-5 2.239-5 5s2.238 5 5 5z" fill="#11385b"/></g></g><g><g><path d="m288.834 416.827h78.053c2.762 0 5-2.239 5-5s-2.238-5-5-5h-78.053c-2.762 0-5 2.239-5 5s2.238 5 5 5z" fill="#11385b"/></g></g></g><g><g><path d="m290.436 354.615c-2.936 2.998-4.755 7.095-4.755 11.613 0 2.761 2.238 5 5 5s5-2.239 5-5c0-3.646 2.967-6.613 6.613-6.613s6.613 2.967 6.613 6.613c0 2.761 2.238 5 5 5s5-2.239 5-5c0-4.518-1.818-8.615-4.755-11.613 2.936-2.998 4.755-7.095 4.755-11.613 0-9.161-7.453-16.613-16.613-16.613s-16.613 7.453-16.613 16.613c0 4.518 1.818 8.615 4.755 11.613zm18.471-11.613c0 3.646-2.967 6.613-6.613 6.613s-6.613-2.967-6.613-6.613 2.967-6.613 6.613-6.613 6.613 2.966 6.613 6.613z" fill="#11385b"/></g></g></g></g></g></g></g><g fill="#17B794"><path d="m313.927 137.982c-1.279 0-2.56-.488-3.535-1.465-1.953-1.952-1.953-5.118 0-7.07l10-10c1.951-1.953 5.119-1.953 7.07 0 1.953 1.952 1.953 5.118 0 7.07l-10 10c-.976.977-2.256 1.465-3.535 1.465z"/><path d="m200.712 80.371c-1.279 0-2.56-.488-3.535-1.465-1.953-1.952-1.953-5.118 0-7.07l10-10c1.951-1.953 5.119-1.953 7.07 0 1.953 1.952 1.953 5.118 0 7.07l-10 10c-.976.977-2.256 1.465-3.535 1.465z"/><path d="m163 136.167c-2.762 0-5-2.238-5-5 0-3.309-2.691-6-6-6-2.762 0-5-2.238-5-5s2.238-5 5-5c3.309 0 6-2.691 6-6 0-2.762 2.238-5 5-5s5 2.238 5 5c0 3.309 2.691 6 6 6 2.762 0 5 2.238 5 5s-2.238 5-5 5c-3.309 0-6 2.691-6 6 0 2.762-2.238 5-5 5z"/><path d="m422.244 430.957c-2.762 0-5-2.238-5-5 0-3.309-2.691-6-6-6-2.762 0-5-2.238-5-5s2.238-5 5-5c3.309 0 6-2.691 6-6 0-2.762 2.238-5 5-5s5 2.238 5 5c0 3.309 2.691 6 6 6 2.762 0 5 2.238 5 5s-2.238 5-5 5c-3.309 0-6 2.691-6 6 0 2.762-2.238 5-5 5z"/></g><path d="m371.906 96.167c-2.762 0-5-2.238-5-5 0-3.309-2.691-6-6-6-2.762 0-5-2.238-5-5s2.238-5 5-5c3.309 0 6-2.691 6-6 0-2.762 2.238-5 5-5s5 2.238 5 5c0 3.309 2.691 6 6 6 2.762 0 5 2.238 5 5s-2.238 5-5 5c-3.309 0-6 2.691-6 6 0 2.762-2.238 5-5 5z" fill="#2a719b"/></g></g></svg>