<svg id="Capa_1" enable-background="new 0 0 512 512" height="512" viewBox="0 0 512 512" width="512" xmlns="http://www.w3.org/2000/svg" xmlns:xlink="http://www.w3.org/1999/xlink"><linearGradient id="SVGID_1_" gradientUnits="userSpaceOnUse" x1="0" x2="512" y1="256" y2="256"><stop offset="0" stop-color="#d2deff" stop-opacity="0"/><stop offset=".459" stop-color="#cee2fd" stop-opacity=".67"/><stop offset=".6852" stop-color="#c9e7fa"/></linearGradient><g><g><path d="m20.337 133.512c-23.967 39.398-26.493 107.613-8.937 150.256 15.377 37.351 45.966 72.409 86.12 76.801 14.766 1.615 29.858-1.024 44.472 1.638 50.257 9.152 68.952 71.09 108.01 104.014 27.182 22.913 64.898 31.021 100.174 26.607s68.302-20.363 97.376-40.824c22.957-16.157 44.436-36.022 55.764-61.707 23.744-53.839-4.19-118.501-47.587-158.239-13.516-12.377-28.581-23.294-39.875-37.727s-18.48-33.695-13.099-51.214c4.293-13.977 15.849-24.812 20.227-38.763 5.958-18.984-3.035-40.281-17.802-53.616s-34.308-20.039-53.666-24.64c-81.103-19.28-258.823-11.524-331.177 107.414z" fill="url(#SVGID_1_)"/></g><g><g><g><path d="m401.918 104.784h-276.462c-5.523 0-10 4.477-10 10v29.112c0 5.523 4.477 10 10 10h5.335l2.446 21.114 24.665 213.056c-15.713-2.578-36.906 5.852-54.138 23.083-23.325 23.325-30.547 53.92-16.13 68.336 11.28 11.28 32.464 9.311 52.32-3.251 10.79 6.597 25.622 10.674 41.998 10.674 26.315 0 48.638-10.523 56.598-25.128h104.566c10.16 0 18.7-7.61 19.87-17.7l31.15-269.07 2.446-21.114h5.335c5.523 0 10-4.477 10-10v-29.112c.001-5.523-4.476-10-9.999-10z" fill="#bae1f8"/><g><g><path d="m391.723 109.34h-256.071v-44.5c0-5.523 4.477-10 10-10h236.071c5.523 0 10 4.477 10 10z" fill="#3e85a9"/><path d="m400.94 96.31-3.7 31.93-3.1 26.77-8.1 69.94-23.05 199.13c-1.17 10.09-9.71 17.7-19.87 17.7h-158.86c-10.16 0-18.7-7.61-19.87-17.7l-31.15-269.07-6.8-58.7z" fill="#fff"/><path d="m397.24 128.24-3.1 26.77-8.1 69.94c-.11.01-.22.02-.33.03-11.79 1-22.8-2.13-31.78-8.07l-15.87 6.98c-3.27 1.44-6.61-1.89-5.17-5.17l6.99-15.87c-5.95-8.98-9.08-19.99-8.07-31.78 2.06-24.3 21.95-43.75 46.29-45.3 6.72-.43 13.18.47 19.14 2.47z" fill="#fff"/><path d="m385.947 225.78-17.14 148h-210.24l-17.14-148z" fill="#3e85a9"/><path d="m385.947 225.78-17.14 148h-210.24l-17.14-148z" fill="#3e85a9"/><g><g><g><path d="m212.397 267.28c0 2.76-2.24 5-5 5h-60.58l-1.16-10h61.74c2.76 0 5 2.24 5 5z" fill="#73aacf"/></g><g><path d="m182.397 287.89c0 2.76-2.24 5-5 5h-28.2l-1.16-10h29.36c2.76 0 5 2.24 5 5z" fill="#73aacf"/></g><g><path d="m182.397 306.68c0 2.76-2.24 5-5 5h-26.02l-1.16-10h27.18c2.76 0 5 2.24 5 5z" fill="#73aacf"/></g></g></g><path d="m400.937 96.31-6.8 58.7h-260.9l-6.8-58.7z" fill="#fff"/><g><g><g><ellipse cx="181.953" cy="429.993" fill="#2a719b" rx="59.727" ry="36.915"/><path d="m181.953 393.078c32.985 0 59.727 16.527 59.727 36.915 0 1.095-.077 2.174-.231 3.245-11.714-.081-11.791-6.491-23.66-6.491-11.945 0-11.945 6.491-23.891 6.491-11.945 0-11.945-6.491-23.891-6.491-11.945 0-11.945 6.491-23.891 6.491-11.868 0-11.945-6.409-23.66-6.491 2.66-18.871 28.285-33.669 59.497-33.669z" fill="#73aacf"/></g></g><g><g><ellipse cx="129.868" cy="417.253" fill="#73aacf" rx="59.727" ry="36.915" transform="matrix(.707 -.707 .707 .707 -257.005 214.041)"/><path d="m103.765 391.15c23.324-23.324 53.919-30.547 68.336-16.13.774.774 1.483 1.592 2.131 2.458-8.341 8.226-12.927 3.748-21.319 12.14-8.447 8.447-3.857 13.036-12.304 21.483s-13.036 3.857-21.483 12.304-3.857 13.036-12.304 21.483c-8.392 8.392-12.979 3.914-21.319 12.14-11.464-15.225-3.809-43.808 18.262-65.878z" fill="#3e85a9"/></g></g></g><path d="m401.918 133.896h-276.462c-5.523 0-10-4.477-10-10v-29.112c0-5.523 4.477-10 10-10h276.462c5.523 0 10 4.477 10 10v29.112c0 5.523-4.477 10-10 10z" fill="#73aacf"/><g><g><ellipse cx="280.164" cy="298.745" fill="#73aacf" rx="49.804" ry="30.782" transform="matrix(.707 -.707 .707 .707 -129.187 285.606)"/><path d="m258.398 276.979c19.449-19.449 44.961-25.472 56.983-13.45.646.646 1.237 1.328 1.777 2.05-6.955 6.859-10.78 3.125-17.777 10.123-7.043 7.043-3.216 10.87-10.26 17.914-7.043 7.043-10.87 3.216-17.914 10.26-7.043 7.043-3.216 10.87-10.26 17.914-6.998 6.998-10.823 3.264-17.777 10.123-9.559-12.696-3.176-36.53 15.228-54.934z" fill="#fff"/></g></g></g><path d="m88.398 347.912c-2.761 0-5-2.238-5-5 0-3.309-2.691-6-6-6-2.761 0-5-2.238-5-5s2.239-5 5-5c3.309 0 6-2.691 6-6 0-2.762 2.239-5 5-5s5 2.238 5 5c0 3.309 2.691 6 6 6 2.761 0 5 2.238 5 5s-2.239 5-5 5c-3.309 0-6 2.691-6 6 0 2.762-2.238 5-5 5z" fill="#17B794"/><path d="m416.935 298.371c-2.761 0-5-2.238-5-5 0-3.309-2.691-6-6-6-2.761 0-5-2.238-5-5s2.239-5 5-5c3.309 0 6-2.691 6-6 0-2.762 2.239-5 5-5s5 2.238 5 5c0 3.309 2.691 6 6 6 2.761 0 5 2.238 5 5s-2.239 5-5 5c-3.309 0-6 2.691-6 6 0 2.762-2.239 5-5 5z" fill="#2a719b"/><path d="m104.065 282.28c-1.28 0-2.559-.488-3.536-1.465-1.953-1.952-1.953-5.118 0-7.07l10-10c1.953-1.953 5.118-1.953 7.071 0 1.953 1.952 1.953 5.118 0 7.07l-10 10c-.976.977-2.255 1.465-3.535 1.465z" fill="#2a719b"/><path d="m424.602 230.497c-1.28 0-2.559-.488-3.536-1.465-1.953-1.952-1.953-5.118 0-7.07l10-10c1.953-1.953 5.118-1.953 7.071 0 1.953 1.952 1.953 5.118 0 7.07l-10 10c-.976.977-2.256 1.465-3.535 1.465z" fill="#17B794"/></g></g><path d="m103.792 52.092c-2.761 0-5-2.238-5-5 0-3.309-2.691-6-6-6-2.761 0-5-2.238-5-5s2.239-5 5-5c3.309 0 6-2.691 6-6 0-2.762 2.239-5 5-5s5 2.238 5 5c0 3.309 2.691 6 6 6 2.761 0 5 2.238 5 5s-2.239 5-5 5c-3.309 0-6 2.691-6 6 0 2.762-2.238 5-5 5z" fill="#17B794"/></g><g><g><path d="m431.018 162.762c1.925-30.06-22.862-54.848-52.922-52.922-24.34 1.559-44.226 21.004-46.29 45.306-1.001 11.788 2.122 22.803 8.072 31.781l-6.986 15.866c-1.443 3.277 1.896 6.615 5.173 5.173l15.866-6.986c8.978 5.95 19.993 9.073 31.781 8.072 24.302-2.063 43.747-21.949 45.306-46.29z" fill="#17B794"/><path d="m420.087 120.772c-1.018-1.018-2.083-1.975-3.169-2.902v-23.086c0-8.271-6.729-15-15-15h-5.195v-14.943c0-8.271-6.729-15-15-15h-236.071c-8.271 0-15 6.729-15 15v14.943h-5.196c-8.271 0-15 6.729-15 15v29.112c0 8.271 6.729 15 15 15h.881l23.323 201.443c.295 2.548 2.456 4.425 4.96 4.425.192 0 .386-.011.582-.033 2.743-.317 4.709-2.799 4.392-5.542l-23.19-200.293h194.252c-2.033 4.964-3.362 10.279-3.833 15.827-.982 11.567 1.575 22.783 7.41 32.614l-5.918 13.44c-1.495 3.396-.766 7.283 1.857 9.907 2.622 2.622 6.511 3.354 9.907 1.857l13.441-5.919c8.459 5.021 17.945 7.615 27.798 7.615.31 0 .621-.015.932-.02l-24.232 209.29c-.876 7.568-7.282 13.275-14.901 13.275h-97.264c.541-2.22.827-4.488.827-6.792 0-11.658-7.055-22.438-19.865-30.356-11.581-7.157-26.734-11.216-42.857-11.528-1.126-6.551-3.914-12.216-8.321-16.624-8.244-8.243-20.854-10.876-35.512-7.419-13.799 3.257-27.967 11.62-39.896 23.549s-20.292 26.097-23.548 39.896c-3.459 14.656-.825 27.268 7.418 35.511 5.876 5.877 13.973 8.903 23.448 8.903 3.816 0 7.855-.49 12.064-1.483 6.823-1.611 13.735-4.474 20.423-8.395 11.649 6.361 26.471 9.863 41.919 9.863 16.87 0 32.802-4.105 44.862-11.559 6.316-3.904 11.226-8.506 14.588-13.564h101.713c12.698 0 23.374-9.512 24.834-22.125l24.494-211.556c23.712-4.894 41.984-25.389 43.562-50.023 1.011-15.759-4.792-31.181-15.919-42.308zm-302.774 339.935c-11.159 2.635-20.443.943-26.143-4.757-5.702-5.701-7.391-14.986-4.757-26.144 2.836-12.015 10.254-24.488 20.887-35.122 10.633-10.633 23.106-18.051 35.122-20.887 11.158-2.634 20.443-.943 26.144 4.757 12.232 12.232 4.846 40.289-16.13 61.266-10.634 10.633-23.107 18.051-35.123 20.887zm64.64 1.201c-11.741 0-22.996-2.219-32.373-6.31 3.433-2.635 6.76-5.541 9.926-8.708 11.929-11.929 20.292-26.097 23.549-39.896.722-3.058 1.163-6.02 1.358-8.879 28.577.781 52.267 15.058 52.267 31.877 0 17.301-25.062 31.916-54.727 31.916zm-56.497-333.012c-2.757 0-5-2.243-5-5v-29.112c0-2.757 2.243-5 5-5h232.266c2.761 0 5-2.238 5-5s-2.239-5-5-5h-217.07v-14.943c0-2.757 2.243-5 5-5h236.071c2.757 0 5 2.243 5 5v19.943c0 2.762 2.239 5 5 5h10.195c2.757 0 5 2.243 5 5v16.304c-8.855-4.667-18.923-6.892-29.142-6.239-17.263 1.107-32.491 10.417-41.748 24.047zm300.572 33.547c-1.401 21.879-18.916 39.774-40.739 41.626-10.233.869-20.121-1.64-28.597-7.257-.832-.551-1.794-.832-2.762-.832-.684 0-1.37.14-2.015.424l-13.332 5.87 5.871-13.332c.686-1.558.532-3.357-.408-4.776-5.617-8.477-8.127-18.365-7.258-28.597 1.853-21.823 19.749-39.338 41.627-40.739 12.899-.838 25.505 3.918 34.601 13.013 9.095 9.095 13.838 21.707 13.012 34.6z" fill="#11385b"/></g><g fill="#fff"><circle cx="362.353" cy="158.902" r="5.59"/><circle cx="382.263" cy="158.902" r="5.59"/><circle cx="402.173" cy="158.902" r="5.59"/></g></g></g></g></svg>