<svg id="Capa_1" enable-background="new 0 0 512 512" height="512" viewBox="0 0 512 512" width="512" xmlns="http://www.w3.org/2000/svg" xmlns:xlink="http://www.w3.org/1999/xlink"><linearGradient id="SVGID_1_" gradientUnits="userSpaceOnUse" x1="0" x2="512" y1="256" y2="256"><stop offset="0" stop-color="#d2deff" stop-opacity="0"/><stop offset=".459" stop-color="#cee2fd" stop-opacity=".67"/><stop offset=".6852" stop-color="#c9e7fa"/></linearGradient><g><g><path d="m418.32 2.5c-55.666-9.521-178.298 12.183-200.004 105.017-14.431 61.722-14.007 112.075-50.427 113.02-21.67.562-32.97-44.31-62.889-48.001-39.047-4.817-66.145 27.695-83.057 57.138-37.205 64.772-25.571 174.918 23.354 228.632 118.488 130.086 259.197-5.952 319.358-112.309 38.585-68.213 125.637-123.352 143.767-200.248 15.177-64.376-18.503-131.003-90.102-143.249z" fill="url(#SVGID_1_)"/></g><g><path d="m411.69 136.9v327.83c0 8.284-6.716 15-15 15h-281.38c-8.284 0-15-6.716-15-15v-392.46c0-8.284 6.716-15 15-15h216.75z" fill="#bae1f8"/><g><g><g><path d="m411.69 111.9v327.83c0 8.284-6.716 15-15 15h-281.38c-8.284 0-15-6.716-15-15v-392.46c0-8.284 6.716-15 15-15h216.75z" fill="#fff"/><path d="m332.06 116.9v-84.63l79.63 79.63v20h-64.63c-8.284 0-15-6.716-15-15z" fill="#bae1f8"/><g><path d="m186.885 172.559c-1.802-1.801-1.802-4.723 0-6.524 11.737-11.738 27.343-18.202 43.942-18.202s32.205 6.464 43.942 18.202c24.23 24.23 24.23 63.654 0 87.884-.901.901-2.082 1.352-3.263 1.352s-2.361-.451-3.263-1.352z" fill="#bae1f8"/></g><path d="m163.613 76.887c0-9.161-7.453-16.613-16.613-16.613s-16.613 7.453-16.613 16.613c0 4.518 1.818 8.615 4.755 11.613-2.936 2.998-4.755 7.095-4.755 11.613 0 2.761 2.238 5 5 5s5-2.239 5-5c0-3.646 2.967-6.613 6.613-6.613s6.613 2.967 6.613 6.613c0 2.761 2.238 5 5 5s5-2.239 5-5c0-4.518-1.818-8.615-4.755-11.613 2.937-2.998 4.755-7.095 4.755-11.613zm-16.613-6.614c3.646 0 6.613 2.967 6.613 6.613s-2.966 6.614-6.613 6.614-6.613-2.967-6.613-6.613 2.967-6.614 6.613-6.614z" fill="#17B794"/><path d="m100.31 303v136.73c0 8.284 6.716 15 15 15h281.38c8.284 0 15-6.716 15-15v-136.73z" fill="#226191"/><path d="m332.06 96.9v-64.63l79.63 79.63h-64.63c-8.284 0-15-6.716-15-15z" fill="#226191"/><path d="m411.69 106.9h-64.63c-5.514 0-10-4.486-10-10v-52.56l47.052 47.052c1.953 1.953 5.118 1.953 7.071 0 1.953-1.952 1.953-5.118 0-7.07l-55.587-55.587c-.916-.916-2.242-1.466-3.537-1.466h-216.749c-11.028 0-20 8.972-20 20v300.063c0 2.762 2.239 5 5 5s5-2.238 5-5v-300.062c0-5.514 4.486-10 10-10h211.75v59.63c0 11.028 8.972 20 20 20h59.63v322.83c0 5.514-4.486 10-10 10h-281.38c-5.514 0-10-4.486-10-10v-58.396c0-2.762-2.239-5-5-5s-5 2.238-5 5v58.396c0 11.028 8.972 20 20 20h281.38c11.028 0 20-8.972 20-20v-327.83c0-2.761-2.239-5-5-5z" fill="#11385b"/></g><g fill="#fff"><path d="m275.841 323.333h-39.683c-6.893 0-12.5 5.607-12.5 12.5v82.334c0 4.143 3.358 7.5 7.5 7.5s7.5-3.357 7.5-7.5v-40.5h37.183c6.893 0 12.5-5.607 12.5-12.5v-29.334c0-6.893-5.607-12.5-12.5-12.5zm-2.5 39.334h-34.683v-24.334h34.683z"/><path d="m358.334 338.333c4.143 0 7.5-3.357 7.5-7.5s-3.357-7.5-7.5-7.5h-44.684c-6.893 0-12.5 5.607-12.5 12.5v33.667c0 6.893 5.607 12.5 12.5 12.5h37.184v28.667h-42.184c-4.142 0-7.5 3.357-7.5 7.5s3.358 7.5 7.5 7.5h44.684c6.893 0 12.5-5.607 12.5-12.5v-33.667c0-6.893-5.607-12.5-12.5-12.5h-37.184v-28.667z"/><path d="m203.35 410.667h-42.183v-24.302h35.833c4.142 0 7.5-3.357 7.5-7.5s-3.358-7.5-7.5-7.5h-35.833v-33.032h42.183c4.142 0 7.5-3.357 7.5-7.5s-3.358-7.5-7.5-7.5h-44.683c-6.893 0-12.5 5.607-12.5 12.5v77.334c0 6.893 5.607 12.5 12.5 12.5h44.683c4.142 0 7.5-3.357 7.5-7.5s-3.358-7.5-7.5-7.5z"/></g></g><g><g><g><path d="m274.209 259.767c-1.28 0-2.559-.488-3.536-1.465-1.953-1.952-1.953-5.118 0-7.07 22.359-22.359 22.359-58.74 0-81.1-10.831-10.831-25.232-16.796-40.549-16.796-15.318 0-29.718 5.965-40.549 16.796-1.953 1.953-5.118 1.953-7.071 0-1.953-1.952-1.953-5.118 0-7.07 12.72-12.721 29.632-19.726 47.621-19.726 17.988 0 34.9 7.005 47.621 19.726 26.258 26.258 26.258 68.982 0 95.24-.978.977-2.258 1.465-3.537 1.465z" fill="#2a719b"/></g><g><path d="m330.647 228.035c-1.28 0-2.559-.488-3.536-1.465l-112.876-112.876c-1.953-1.952-1.953-5.118 0-7.07 1.953-1.953 5.118-1.953 7.071 0l112.876 112.876c1.953 1.952 1.953 5.118 0 7.07-.976.977-2.256 1.465-3.535 1.465z" fill="#17B794"/></g><path d="m192.931 168.659-8.951-8.952c-1.399-1.399-3.259-2.171-5.237-2.171s-3.838.771-5.236 2.17l-8.952 8.952c-1.399 1.398-2.169 3.258-2.169 5.236s.771 3.837 2.168 5.234l8.953 8.953c0 .001 0 .001.001.001 1.443 1.443 3.339 2.164 5.235 2.164s3.792-.722 5.235-2.165l8.952-8.952c1.399-1.398 2.169-3.258 2.169-5.235 0-1.978-.77-3.838-2.168-5.235z" fill="#73aacf"/><path d="m281.101 256.829-8.952-8.952c-1.399-1.399-3.258-2.171-5.237-2.171s-3.838.771-5.235 2.17l-8.952 8.952c-1.399 1.398-2.169 3.258-2.169 5.236s.771 3.837 2.168 5.234l8.953 8.953c1.443 1.443 3.339 2.165 5.235 2.165s3.792-.722 5.236-2.165l8.952-8.952c1.399-1.398 2.169-3.258 2.169-5.235 0-1.978-.77-3.838-2.168-5.235z" fill="#73aacf"/><g><g fill="#73aacf"><path d="m220.881 94.978c-5.042-5.042-13.248-5.043-18.291.001-2.443 2.443-3.788 5.69-3.788 9.146s1.346 6.702 3.788 9.145c2.443 2.443 5.69 3.789 9.146 3.789 3.455 0 6.702-1.346 9.145-3.788 0 0 0 0 0-.001 2.443-2.442 3.788-5.69 3.788-9.145s-1.345-6.702-3.788-9.147z"/><path d="m345.826 219.924c-5.042-5.041-13.248-5.043-18.291.001-2.443 2.443-3.788 5.69-3.788 9.146s1.346 6.702 3.788 9.145c2.443 2.443 5.69 3.789 9.146 3.789 3.455 0 6.702-1.346 9.145-3.788 0 0 0 0 0-.001 2.443-2.442 3.788-5.69 3.788-9.145.001-3.456-1.344-6.703-3.788-9.147z"/></g></g></g><path d="m288.397 161.362-8.954-8.954c-2.887-2.887-7.583-2.886-10.47.001l-8.952 8.952c-1.399 1.398-2.169 3.258-2.169 5.236 0 1.977.77 3.836 2.169 5.236l8.952 8.95c1.398 1.399 3.258 2.171 5.236 2.171s3.838-.771 5.236-2.17l8.954-8.953c1.398-1.398 2.167-3.258 2.167-5.234-.001-1.978-.771-3.837-2.169-5.235z" fill="#73aacf"/></g></g><path d="m452 330c-2.761 0-5-2.238-5-5 0-3.309-2.691-6-6-6-2.761 0-5-2.238-5-5s2.239-5 5-5c3.309 0 6-2.691 6-6 0-2.762 2.239-5 5-5s5 2.238 5 5c0 3.309 2.691 6 6 6 2.761 0 5 2.238 5 5s-2.239 5-5 5c-3.309 0-6 2.691-6 6 0 2.762-2.239 5-5 5z" fill="#17B794"/><path d="m430 62.27c-2.761 0-5-2.238-5-5 0-3.309-2.691-6-6-6-2.761 0-5-2.238-5-5s2.239-5 5-5c3.309 0 6-2.691 6-6 0-2.762 2.239-5 5-5s5 2.238 5 5c0 3.309 2.691 6 6 6 2.761 0 5 2.238 5 5s-2.239 5-5 5c-3.309 0-6 2.691-6 6 0 2.761-2.239 5-5 5z" fill="#2a719b"/><path d="m50 366.5c-2.761 0-5-2.238-5-5 0-3.309-2.691-6-6-6-2.761 0-5-2.238-5-5s2.239-5 5-5c3.309 0 6-2.691 6-6 0-2.762 2.239-5 5-5s5 2.238 5 5c0 3.309 2.691 6 6 6 2.761 0 5 2.238 5 5s-2.239 5-5 5c-3.309 0-6 2.691-6 6 0 2.762-2.239 5-5 5z" fill="#17B794"/><path d="m65 136.9c-1.28 0-2.559-.488-3.536-1.465-1.953-1.952-1.953-5.118 0-7.07l10-10c1.953-1.953 5.118-1.953 7.071 0 1.953 1.952 1.953 5.118 0 7.07l-10 10c-.976.977-2.255 1.465-3.535 1.465z" fill="#2a719b"/><path d="m463 384.5c-1.28 0-2.559-.488-3.536-1.465-1.953-1.952-1.953-5.118 0-7.07l10-10c1.953-1.953 5.118-1.953 7.071 0 1.953 1.952 1.953 5.118 0 7.07l-10 10c-.976.977-2.255 1.465-3.535 1.465z" fill="#17B794"/></g></g></svg>