<svg id="Capa_1" enable-background="new 0 0 512 512" height="512" viewBox="0 0 512 512" width="512" xmlns="http://www.w3.org/2000/svg" xmlns:xlink="http://www.w3.org/1999/xlink"><linearGradient id="SVGID_1_" gradientUnits="userSpaceOnUse" x1="96.524" x2="444.685" y1="456.199" y2="41.276"><stop offset="0" stop-color="#d2deff" stop-opacity="0"/><stop offset=".459" stop-color="#cee2fd" stop-opacity=".67"/><stop offset=".6852" stop-color="#c9e7fa"/></linearGradient><g><g><path d="m4.896 326.759c17.448 172.872 292.417 167.142 420.804 136.265 82.47-19.834 87.596-59.472 86.106-144.001-.96-54.486 3.443-198.725-32.004-244.123-54.448-69.733-103.228-25.998-170.656-3.235-86.488 29.197-120.189-22.932-202.476-21.38-120.641 2.278-110.779 187.252-101.774 276.474z" fill="url(#SVGID_1_)"/></g><g><g><path d="m411.69 139.4v327.83c0 8.284-6.716 15-15 15h-281.38c-8.284 0-15-6.716-15-15v-392.46c0-8.284 6.716-15 15-15h216.75z" fill="#bae1f8"/><path d="m411.69 114.4v327.83c0 8.284-6.716 15-15 15h-281.38c-8.284 0-15-6.716-15-15v-392.46c0-8.284 6.716-15 15-15h216.75z" fill="#fff"/><g><circle cx="231.717" cy="217.334" fill="#17B794" r="66.677"/><path d="m411.69 345.755v-133.08c-23.25-8.09-48.255-12.495-74.266-12.495-96.451 0-178.753 60.484-211.134 145.574h285.4z" fill="#226191"/><path d="m335.47 345.756h-235.16v-90.014c24.426-15.946 53.581-25.201 84.904-25.201 71.949 0 132.507 48.851 150.256 115.215z" fill="#2d719b"/></g><path d="m332.06 119.4v-84.63l79.63 79.63v20h-64.63c-8.284 0-15-6.716-15-15z" fill="#bae1f8"/><path d="m332.06 99.4v-64.63l79.63 79.63h-64.63c-8.284 0-15-6.716-15-15z" fill="#73aacf"/><g><g><g><path d="m163.613 79.387c0-9.161-7.453-16.613-16.613-16.613s-16.613 7.453-16.613 16.613c0 4.518 1.818 8.615 4.755 11.613-2.936 2.998-4.755 7.095-4.755 11.613 0 2.761 2.238 5 5 5s5-2.239 5-5c0-3.646 2.967-6.613 6.613-6.613s6.613 2.967 6.613 6.613c0 2.761 2.238 5 5 5s5-2.239 5-5c0-4.518-1.818-8.615-4.755-11.613 2.937-2.998 4.755-7.095 4.755-11.613zm-16.613-6.613c3.646 0 6.613 2.967 6.613 6.613s-2.967 6.613-6.613 6.613-6.613-2.967-6.613-6.613 2.967-6.613 6.613-6.613z" fill="#17B794"/><path d="m100.31 305.5v136.73c0 8.284 6.716 15 15 15h281.38c8.284 0 15-6.716 15-15v-136.73z" fill="#73aacf"/></g><g><g><path d="m198.35 428.167h-44.683c-4.142 0-7.5-3.357-7.5-7.5s3.358-7.5 7.5-7.5h42.183v-28.667h-37.183c-6.893 0-12.5-5.607-12.5-12.5v-33.667c0-6.893 5.607-12.5 12.5-12.5h44.683c4.142 0 7.5 3.357 7.5 7.5s-3.358 7.5-7.5 7.5h-42.183v28.667h37.183c6.893 0 12.5 5.607 12.5 12.5v33.667c0 6.893-5.608 12.5-12.5 12.5z" fill="#fff"/></g><g><path d="m256 428.167c-6.37 0-11.812-4.337-13.233-10.546l-18.919-82.614c-.925-4.037 1.599-8.06 5.636-8.984 4.038-.923 8.061 1.599 8.985 5.637l17.531 76.551 17.531-76.552c.925-4.038 4.949-6.56 8.985-5.637 4.038.925 6.561 4.947 5.636 8.984l-18.919 82.614c-1.421 6.21-6.863 10.547-13.233 10.547z" fill="#fff"/></g><g><path d="m353.333 428.167h-39.683c-6.893 0-12.5-5.607-12.5-12.5v-77.334c0-6.893 5.607-12.5 12.5-12.5h44.683c4.142 0 7.5 3.357 7.5 7.5s-3.358 7.5-7.5 7.5h-42.183v72.334h34.683v-28.667h-17.342c-4.142 0-7.5-3.357-7.5-7.5s3.358-7.5 7.5-7.5h19.842c6.893 0 12.5 5.607 12.5 12.5v33.667c0 6.893-5.607 12.5-12.5 12.5z" fill="#fff"/></g></g></g></g><path d="m415.226 110.865-79.629-79.63c-.916-.916-2.242-1.466-3.537-1.466h-216.75c-11.028 0-20 8.972-20 20v59.73c0 2.762 2.239 5 5 5s5-2.238 5-5v-59.729c0-5.514 4.486-10 10-10h211.75v59.631c0 11.028 8.972 20 20 20h30.629c2.761 0 5-2.238 5-5s-2.239-5-5-5h-30.629c-5.514 0-10-4.486-10-10v-52.56l69.63 69.631v325.759c0 5.514-4.486 10-10 10h-281.38c-5.514 0-10-4.486-10-10v-298.731c0-2.762-2.239-5-5-5s-5 2.238-5 5v298.73c0 11.028 8.972 20 20 20h281.38c11.028 0 20-8.972 20-20v-327.83c0-1.326-.527-2.597-1.464-3.535z" fill="#11385b"/></g><g><path d="m58 185.097c-2.761 0-5-2.238-5-5 0-3.309-2.691-6-6-6-2.761 0-5-2.238-5-5s2.239-5 5-5c3.309 0 6-2.691 6-6 0-2.762 2.239-5 5-5s5 2.238 5 5c0 3.309 2.691 6 6 6 2.761 0 5 2.238 5 5s-2.239 5-5 5c-3.309 0-6 2.691-6 6 0 2.762-2.239 5-5 5z" fill="#2a719b"/><g fill="#17B794"><path d="m428 85.387c-2.761 0-5-2.238-5-5 0-3.309-2.691-6-6-6-2.761 0-5-2.238-5-5s2.239-5 5-5c3.309 0 6-2.691 6-6 0-2.762 2.239-5 5-5s5 2.238 5 5c0 3.309 2.691 6 6 6 2.761 0 5 2.238 5 5s-2.239 5-5 5c-3.309 0-6 2.691-6 6 0 2.762-2.239 5-5 5z"/><path d="m58 473.231c-2.761 0-5-2.238-5-5 0-3.309-2.691-6-6-6-2.761 0-5-2.238-5-5s2.239-5 5-5c3.309 0 6-2.692 6-6.001 0-2.762 2.239-5 5-5s5 2.238 5 5c0 3.309 2.691 6.001 6 6.001 2.761 0 5 2.238 5 5s-2.239 5-5 5c-3.309 0-6 2.691-6 6 0 2.761-2.239 5-5 5z"/><path d="m53 413.5c-1.28 0-2.559-.488-3.536-1.465-1.953-1.952-1.953-5.118 0-7.07l10-10c1.953-1.953 5.118-1.953 7.071 0 1.953 1.952 1.953 5.118 0 7.07l-10 10c-.976.977-2.255 1.465-3.535 1.465z"/></g><path d="m455 139.401c-1.28 0-2.559-.488-3.536-1.465-1.953-1.952-1.953-5.118 0-7.07l10-10c1.953-1.953 5.118-1.953 7.071 0 1.953 1.952 1.953 5.118 0 7.07l-10 10c-.976.976-2.255 1.465-3.535 1.465z" fill="#2a719b"/></g></g></g></svg>