<svg id="Capa_1" enable-background="new 0 0 512 512" height="512" viewBox="0 0 512 512" width="512" xmlns="http://www.w3.org/2000/svg" xmlns:xlink="http://www.w3.org/1999/xlink"><linearGradient id="SVGID_1_" gradientUnits="userSpaceOnUse" x1="4.722" x2="389.966" y1="449.152" y2="-9.964"><stop offset="0" stop-color="#d2deff" stop-opacity="0"/><stop offset=".459" stop-color="#cee2fd" stop-opacity=".67"/><stop offset=".6852" stop-color="#c9e7fa"/></linearGradient><g><g><path d="m451.798 43.963c-160.556-97.869-410.51-8.611-439.594 61.949-38.908 94.394 26.578 110.528 38.743 187.874 9.761 62.061-51.182 121.495-16.394 176.282 37.883 59.663 163.465 44.681 211.198 16.447 87.376-51.683 43.309-112.012 84.684-187.299 39.407-71.707 116.244-42.625 160.961-99.99 42.5-54.521 14.31-122.402-39.598-155.263z" fill="url(#SVGID_1_)"/></g><g><g><path d="m411.163 136.9v327.83c0 8.284-6.716 15-15 15h-281.38c-8.284 0-15-6.716-15-15v-392.46c0-8.284 6.716-15 15-15h216.75z" fill="#bae1f8"/><g><g><g><path d="m411.163 111.9v327.83c0 8.284-6.716 15-15 15h-281.38c-8.284 0-15-6.716-15-15v-392.46c0-8.284 6.716-15 15-15h216.75z" fill="#fff"/><path d="m331.533 116.9v-84.63l79.63 79.63v20h-64.63c-8.284 0-15-6.716-15-15z" fill="#bae1f8"/><path d="m163.086 76.887c0-9.161-7.453-16.613-16.613-16.613s-16.613 7.453-16.613 16.613c0 4.518 1.818 8.615 4.755 11.613-2.936 2.998-4.755 7.095-4.755 11.613 0 2.761 2.238 5 5 5s5-2.239 5-5c0-3.646 2.967-6.613 6.613-6.613s6.613 2.967 6.613 6.613c0 2.761 2.238 5 5 5s5-2.239 5-5c0-4.518-1.818-8.615-4.755-11.613 2.937-2.998 4.755-7.095 4.755-11.613zm-16.613-6.614c3.646 0 6.613 2.967 6.613 6.613s-2.967 6.613-6.613 6.613-6.613-2.967-6.613-6.613 2.967-6.613 6.613-6.613z" fill="#17B794"/><path d="m99.783 303v136.73c0 8.284 6.716 15 15 15h281.38c8.284 0 15-6.716 15-15v-136.73z" fill="#2a719b"/><path d="m331.533 96.9v-64.63l79.63 79.63h-64.63c-8.284 0-15-6.716-15-15z" fill="#2a719b"/><path d="m396.163 459.73h-281.38c-11.028 0-20-8.972-20-20v-392.46c0-11.028 8.972-20 20-20h182.749c2.762 0 5 2.238 5 5s-2.238 5-5 5h-182.749c-5.514 0-10 4.486-10 10v392.46c0 5.514 4.486 10 10 10h281.38c5.514 0 10-4.486 10-10v-325.758l-69.63-69.631v52.559c0 5.514 4.486 10 10 10h30.629c2.762 0 5 2.238 5 5s-2.238 5-5 5h-30.629c-11.028 0-20-8.972-20-20v-64.63c0-2.022 1.218-3.846 3.087-4.619 1.866-.774 4.019-.348 5.448 1.084l79.63 79.631c.938.938 1.465 2.209 1.465 3.535v327.83c0 11.028-8.972 19.999-20 19.999z" fill="#11385b"/></g><g fill="#fff"><path d="m254.803 338.878c-1.423-6.209-6.864-10.545-13.233-10.545-6.371 0-11.813 4.337-13.232 10.546l-18.92 82.614c-.925 4.037 1.599 8.06 5.637 8.984.563.129 1.126.191 1.681.191 3.419 0 6.508-2.354 7.304-5.828l6.145-26.84h22.769l6.147 26.841c.926 4.038 4.948 6.564 8.984 5.637 4.038-.925 6.562-4.947 5.637-8.984zm-21.183 44.122 7.949-34.711 7.95 34.711z"/><path d="m294.22 378.5c-4.143 0-7.5 3.357-7.5 7.5v37.167c0 4.143 3.357 7.5 7.5 7.5s7.5-3.357 7.5-7.5v-37.167c0-4.143-3.357-7.5-7.5-7.5z"/><path d="m294.22 354.218c-4.143 0-7.5 3.357-7.5 7.5v.115c0 4.143 3.357 7.5 7.5 7.5s7.5-3.357 7.5-7.5v-.115c0-4.143-3.357-7.5-7.5-7.5z"/></g></g><g><g><path d="m325.995 279.369h-141.043c-2.762 0-5-2.238-5-5v-141.044c0-2.762 2.238-5 5-5h141.043c2.762 0 5 2.238 5 5v141.044c0 2.762-2.239 5-5 5zm-136.043-10h131.043v-131.044h-131.043z" fill="#2d719b"/></g><g fill="#2a719b"><path d="m320.995 139h10v14.25h-10z"/><path d="m320.995 211.5h10v11.5h-10z"/><path d="m179.952 211.5h10v11.5h-10z"/><path d="m179.952 139h10v14.25h-10z"/></g><g><g fill="#73aacf"><g><path d="m190.111 121.207h-10.318c-3.837 0-6.959 3.122-6.959 6.96v10.317c0 3.837 3.122 6.959 6.959 6.959h10.318c3.837 0 6.959-3.122 6.959-6.959v-10.317c0-3.838-3.122-6.96-6.959-6.96z"/><path d="m260.632 121.207h-10.318c-3.837 0-6.959 3.122-6.959 6.96v10.317c0 3.837 3.122 6.959 6.959 6.959h10.318c3.837 0 6.959-3.122 6.959-6.959v-10.317c0-3.838-3.122-6.96-6.959-6.96z"/><path d="m331.154 121.207h-10.318c-3.837 0-6.959 3.122-6.959 6.96v10.317c0 3.837 3.122 6.959 6.959 6.959h10.318c3.837 0 6.959-3.122 6.959-6.959v-10.317c0-3.838-3.122-6.96-6.959-6.96z"/></g><g><path d="m190.111 262.251h-10.318c-3.837 0-6.959 3.122-6.959 6.959v10.318c0 3.837 3.122 6.959 6.959 6.959h10.318c3.837 0 6.959-3.122 6.959-6.959v-10.318c0-3.837-3.122-6.959-6.959-6.959z"/><path d="m260.632 262.251h-10.318c-3.837 0-6.959 3.122-6.959 6.959v10.318c0 3.837 3.122 6.959 6.959 6.959h10.318c3.837 0 6.959-3.122 6.959-6.959v-10.318c0-3.837-3.122-6.959-6.959-6.959z"/><path d="m331.154 262.251h-10.318c-3.837 0-6.959 3.122-6.959 6.959v10.318c0 3.837 3.122 6.959 6.959 6.959h10.318c3.837 0 6.959-3.122 6.959-6.959v-10.318c0-3.837-3.122-6.959-6.959-6.959z"/></g><g><path d="m331.154 191.73h-10.318c-3.837 0-6.959 3.122-6.959 6.959v10.318c0 3.837 3.122 6.959 6.959 6.959h10.318c3.837 0 6.959-3.122 6.959-6.959v-10.318c0-3.837-3.122-6.959-6.959-6.959z"/><path d="m190.111 191.73h-10.318c-3.837 0-6.959 3.122-6.959 6.959v10.318c0 3.837 3.122 6.959 6.959 6.959h10.318c3.837 0 6.959-3.122 6.959-6.959v-10.318c0-3.837-3.122-6.959-6.959-6.959z"/></g></g></g><g><g><path d="m217.605 160.83 14.425 91.285c.266 1.683 2.399 2.258 3.475.937l21.449-26.343c.305-.375.738-.624 1.215-.701l33.539-5.404c1.683-.271 2.251-2.406.926-3.478l-71.842-58.135c-1.404-1.137-3.468.056-3.187 1.839z" fill="#fff"/></g></g></g></g></g><path d="m455.527 115.113c-1.279 0-2.56-.488-3.535-1.465-1.953-1.952-1.953-5.118 0-7.07l10-10c1.951-1.953 5.119-1.953 7.07 0 1.953 1.952 1.953 5.118 0 7.07l-10 10c-.975.977-2.255 1.465-3.535 1.465z" fill="#2a719b"/><path d="m445.527 281.124c-1.279 0-2.56-.488-3.535-1.465-1.953-1.952-1.953-5.118 0-7.07l10-10c1.951-1.953 5.119-1.953 7.07 0 1.953 1.952 1.953 5.118 0 7.07l-10 10c-.975.977-2.255 1.465-3.535 1.465z" fill="#17B794"/><path d="m61.047 340.5c-1.279 0-2.56-.488-3.535-1.465-1.953-1.952-1.953-5.118 0-7.07l10-10c1.951-1.953 5.119-1.953 7.07 0 1.953 1.952 1.953 5.118 0 7.07l-10 10c-.976.977-2.256 1.465-3.535 1.465z" fill="#2a719b"/><g fill="#17B794"><path d="m422.163 76.273c-2.762 0-5-2.238-5-5 0-3.309-2.691-6-6-6-2.762 0-5-2.238-5-5s2.238-5 5-5c3.309 0 6-2.691 6-6 0-2.762 2.238-5 5-5s5 2.238 5 5c0 3.309 2.691 6 6 6 2.762 0 5 2.238 5 5s-2.238 5-5 5c-3.309 0-6 2.691-6 6 0 2.762-2.238 5-5 5z"/><path d="m57.473 426.667c-2.762 0-5-2.238-5-5 0-3.309-2.691-6-6-6-2.762 0-5-2.238-5-5s2.238-5 5-5c3.309 0 6-2.691 6-6 0-2.762 2.238-5 5-5s5 2.238 5 5c0 3.309 2.691 6 6 6 2.762 0 5 2.238 5 5s-2.238 5-5 5c-3.309 0-6 2.691-6 6 0 2.762-2.239 5-5 5z"/></g></g></g></svg>