<svg id="Capa_1" enable-background="new 0 0 512 512" height="512" viewBox="0 0 512 512" width="512" xmlns="http://www.w3.org/2000/svg" xmlns:xlink="http://www.w3.org/1999/xlink"><linearGradient id="SVGID_1_" gradientUnits="userSpaceOnUse" x1="27.58" x2="504.532" y1="389.429" y2="114.061"><stop offset="0" stop-color="#d2deff" stop-opacity="0"/><stop offset=".459" stop-color="#cee2fd" stop-opacity=".67"/><stop offset=".6852" stop-color="#c9e7fa"/></linearGradient><g><g><path d="m4.896 324.259c17.448 172.871 292.417 167.142 420.804 136.265 82.47-19.834 87.596-59.472 86.106-144.001-.96-54.486 3.443-198.725-32.004-244.123-54.448-69.733-103.228-25.998-170.656-3.235-86.488 29.197-120.189-22.932-202.476-21.38-120.641 2.278-110.779 187.252-101.774 276.474z" fill="url(#SVGID_1_)"/></g><g><g><g><g><path d="m416.337 78.705c-1.958-.65-4.037-.997-6.198-1.028.08-.001.157-.012.238-.012h-.54-280.02c-11.51 0-20.84 9.33-20.84 20.83v307.92h-30.45c-5.523 0-10 4.477-10 10v17.08c0 11.51 9.33 20.84 20.83 20.84h279.35 1.21c-.204 0-.402-.025-.605-.031 11.218-.323 20.225-9.504 20.225-20.799v-287.34h31.14c5.523 0 10-4.477 10-10v-37.67c.001-9.23-6.01-17.07-14.34-19.79z" fill="#bae1f8"/><g><g><path d="m375.117 78.495v47.67h45.56c5.523 0 10-4.477 10-10v-37.67c0-9.23-6.01-17.07-14.34-19.79-2.05-.68-4.23-1.04-6.5-1.04h-55.55c11.5 0 20.83 9.33 20.83 20.83z" fill="#226191"/><path d="m410.377 57.665c-11.51 0-20.84 9.33-20.84 20.83v335.01c0 11.5-9.33 20.83-20.83 20.83h-259.73v-355.84c0-11.5 9.33-20.83 20.84-20.83z" fill="#fff"/><path d="m389.537 158v-79.505c0-11.5 9.33-20.83 20.84-20.83h-280.56c-11.51 0-20.84 9.33-20.84 20.83v79.505z" fill="#a9d2ea"/><path d="m369.917 434.335h-280.56c-11.5 0-20.83-9.33-20.83-20.84v-17.08c0-5.523 4.477-10 10-10h260.56c5.523 0 10 4.477 10 10v17.08c0 11.51 9.33 20.84 20.83 20.84z" fill="#226191"/><path d="m417.91 53.959c-2.311-.766-4.726-1.176-7.186-1.259-.117-.008-.229-.035-.348-.035h-.54-280.02c-14.248 0-25.84 11.587-25.84 25.83v273.995c0 2.762 2.238 5 5 5s5-2.238 5-5v-273.995c0-8.729 7.105-15.83 15.84-15.83h260.154c-3.405 4.376-5.435 9.87-5.435 15.83v335.01c0 8.524-6.777 15.477-15.223 15.799-8.448-.323-15.227-7.278-15.227-15.803v-17.083c0-8.271-6.729-15-15-15h-36.085c-2.762 0-5 2.238-5 5s2.238 5 5 5h36.087c2.757 0 5 2.243 5 5v17.083c0 5.962 2.029 11.457 5.435 15.834h-260.16c-8.73 0-15.834-7.104-15.834-15.834v-17.083c0-2.757 2.243-5 5-5h190.472c2.762 0 5-2.238 5-5s-2.238-5-5-5h-190.472c-8.271 0-15 6.729-15 15v17.083c0 14.245 11.589 25.834 25.834 25.834h279.345 1.214c.346 0 .683-.035 1.009-.102 13.205-1.132 23.607-12.234 23.607-25.728v-282.34h26.141c8.271 0 15-6.729 15-15v-37.67c0-11.206-7.149-21.069-17.768-24.536zm7.768 62.206c0 2.757-2.243 5-5 5h-26.141v-42.67c0-8.649 6.979-15.69 15.604-15.818 1.59.03 3.145.284 4.644.781 6.516 2.127 10.893 8.17 10.893 15.037z" fill="#11385b"/></g></g><circle cx="148.102" cy="109.894" fill="#17B794" r="7.979"/></g></g><g><g><path d="m251.389 359.667h-90.308c-2.761 0-5-2.239-5-5v-106.667c0-2.761 2.239-5 5-5h90.308z" fill="#a9d2ea"/><path d="m251.389 243h47.654v116.667h-47.654z" fill="#bae1f8"/><path d="m341.697 359.667h-42.654v-116.667h42.654c2.761 0 5 2.239 5 5v106.667c0 2.761-2.239 5-5 5z" fill="#3e85a9"/></g><g fill="#17B794"><circle cx="322.87" cy="335.5" r="6.179"/><circle cx="275.216" cy="314.5" r="6.179"/><circle cx="275.216" cy="293.5" r="6.179"/><circle cx="322.87" cy="272.5" r="6.179"/></g><g fill="#bae1f8"><path d="m221.995 340.5h-51.52c-2.762 0-5-2.239-5-5s2.238-5 5-5h51.52c2.762 0 5 2.239 5 5s-2.238 5-5 5z"/><path d="m231.995 319.5h-61.52c-2.762 0-5-2.239-5-5s2.238-5 5-5h61.52c2.762 0 5 2.239 5 5s-2.238 5-5 5z"/><path d="m221.995 298.5h-51.52c-2.762 0-5-2.239-5-5s2.238-5 5-5h51.52c2.762 0 5 2.239 5 5s-2.238 5-5 5z"/><path d="m196.995 277.5h-26.52c-2.762 0-5-2.239-5-5s2.238-5 5-5h26.52c2.762 0 5 2.239 5 5s-2.238 5-5 5z"/><path d="m236.543 140.293h-93.92c-2.762 0-5-2.239-5-5s2.238-5 5-5h93.92c2.762 0 5 2.239 5 5s-2.238 5-5 5z"/><path d="m277.655 221.507h-68.92c-2.762 0-5-2.239-5-5s2.238-5 5-5h68.92c2.762 0 5 2.239 5 5s-2.238 5-5 5z"/><path d="m227.655 204.087h-18.92c-2.762 0-5-2.239-5-5s2.238-5 5-5h18.92c2.762 0 5 2.239 5 5s-2.238 5-5 5z"/></g></g><path d="m189.963 193.28c0-9.161-7.453-16.613-16.613-16.613s-16.613 7.453-16.613 16.613c0 4.518 1.818 8.615 4.755 11.613-2.936 2.998-4.755 7.095-4.755 11.613 0 2.761 2.238 5 5 5s5-2.239 5-5c0-3.646 2.967-6.613 6.613-6.613s6.613 2.967 6.613 6.613c0 2.761 2.238 5 5 5s5-2.239 5-5c0-4.518-1.818-8.615-4.755-11.613 2.937-2.998 4.755-7.095 4.755-11.613zm-16.613-6.613c3.646 0 6.613 2.967 6.613 6.613s-2.967 6.613-6.613 6.613-6.613-2.967-6.613-6.613 2.966-6.613 6.613-6.613z" fill="#17B794"/><g><circle cx="316.691" cy="158" fill="#3e85a9" r="46"/><path d="m323.206 153h-1.516v-10.18h9.453c2.762 0 5-2.238 5-5s-2.238-5-5-5h-9.453v-2.514c0-2.762-2.238-5-5-5s-5 2.238-5 5v2.514h-1.516c-8.32 0-15.09 6.77-15.09 15.09s6.77 15.09 15.09 15.09h1.516v10.18h-9.453c-2.762 0-5 2.238-5 5s2.238 5 5 5h9.453v2.514c0 2.762 2.238 5 5 5s5-2.238 5-5v-2.514h1.516c8.32 0 15.09-6.77 15.09-15.09s-6.769-15.09-15.09-15.09zm-13.031 0c-2.807 0-5.09-2.283-5.09-5.09s2.283-5.09 5.09-5.09h1.516v10.18zm13.031 20.18h-1.516v-10.18h1.516c2.807 0 5.09 2.283 5.09 5.09s-2.283 5.09-5.09 5.09z" fill="#fff"/></g></g><path d="m430.678 183.18c-1.279 0-2.56-.488-3.535-1.465-1.953-1.952-1.953-5.118 0-7.07l10-10c1.951-1.953 5.119-1.953 7.07 0 1.953 1.952 1.953 5.118 0 7.07l-10 10c-.976.976-2.256 1.465-3.535 1.465z" fill="#2a719b"/><path d="m430.678 401.415c-1.279 0-2.56-.488-3.535-1.465-1.953-1.952-1.953-5.118 0-7.07l10-10c1.951-1.953 5.119-1.953 7.07 0 1.953 1.952 1.953 5.118 0 7.07l-10 10c-.976.977-2.256 1.465-3.535 1.465z" fill="#2a719b"/><g fill="#17B794"><path d="m51.075 195.09c-2.762 0-5-2.238-5-5 0-3.309-2.691-6-6-6-2.762 0-5-2.238-5-5s2.238-5 5-5c3.309 0 6-2.691 6-6 0-2.762 2.238-5 5-5s5 2.238 5 5c0 3.309 2.691 6 6 6 2.762 0 5 2.238 5 5s-2.238 5-5 5c-3.309 0-6 2.691-6 6 0 2.762-2.238 5-5 5z"/><path d="m74.527 246.307c-2.762 0-5-2.238-5-5 0-3.309-2.691-6-6-6-2.762 0-5-2.238-5-5s2.238-5 5-5c3.309 0 6-2.691 6-6 0-2.762 2.238-5 5-5s5 2.238 5 5c0 3.309 2.691 6 6 6 2.762 0 5 2.238 5 5s-2.238 5-5 5c-3.309 0-6 2.691-6 6 0 2.761-2.238 5-5 5z"/><path d="m460.925 235.307c-2.762 0-5-2.238-5-5 0-3.309-2.691-6-6-6-2.762 0-5-2.238-5-5s2.238-5 5-5c3.309 0 6-2.692 6-6.001 0-2.762 2.238-5 5-5s5 2.238 5 5c0 3.309 2.691 6.001 6 6.001 2.762 0 5 2.238 5 5s-2.238 5-5 5c-3.309 0-6 2.691-6 6 0 2.761-2.238 5-5 5z"/></g></g></g></svg>