<svg id="Capa_1" enable-background="new 0 0 512 512" height="512" viewBox="0 0 512 512" width="512" xmlns="http://www.w3.org/2000/svg" xmlns:xlink="http://www.w3.org/1999/xlink"><linearGradient id="SVGID_1_" gradientUnits="userSpaceOnUse" x1="96.524" x2="444.685" y1="456.199" y2="41.276"><stop offset="0" stop-color="#d2deff" stop-opacity="0"/><stop offset=".459" stop-color="#cee2fd" stop-opacity=".67"/><stop offset=".6852" stop-color="#c9e7fa"/></linearGradient><g><g><path d="m4.896 326.759c17.448 172.871 292.417 167.142 420.804 136.265 82.47-19.834 87.596-59.472 86.106-144.001-.96-54.486 3.443-198.725-32.004-244.123-54.448-69.733-103.228-25.998-170.656-3.235-86.488 29.197-120.189-22.932-202.476-21.38-120.641 2.278-110.779 187.252-101.774 276.474z" fill="url(#SVGID_1_)"/></g><g><path d="m425.28 390.663c-.904-3.224-4.682-4.697-7.489-2.872-5.178 3.367-9.761 5.046-13.75 5.046-4.649 0-7.772-1.784-9.38-5.359-1.608-3.567-2.411-9.647-2.411-18.222v-135.774c0-19.646-1.341-35.188-4.019-46.627-2.68-11.431-7.956-21.077-15.81-28.94-8.575-8.575-19.294-14.646-32.157-18.222-27.932-7.765-57.76-7.593-86.046-1.82-23.487 4.793-49.482 13.634-63.747 34.244-18.211 26.31-1.473 66.724 31.885 66.725 41.453.001 57.738-53.397 21.964-75.555 9.733-3.903 28.256-9.296 46.627-3.543 14.289 4.475 24.093 17.811 24.128 32.784v.224 41.803c0 9.647-4.555 17.242-13.666 22.778-37.683 22.894-90.487 24.651-119.514 61.096-14.432 18.119-16.648 44.712-8.375 66.131 10.572 27.372 35.827 38.109 63.845 38.109 34.65 0 60.912-14.47 78.783-43.411.351 13.223 4.462 23.766 12.325 31.621 7.856 7.863 21.613 11.79 41.267 11.79 21.932 0 40.682-5.894 56.241-17.688 1.644-1.246 2.367-3.371 1.81-5.357zm-110.204-44.269c-10.368 14.654-19.576 23.106-34.836 26.356-10.912 2.324-34.836-1.5-34.836-27.258 0-24.742 28.404-36.449 42.338-45.384 13.935-8.575 23.046-16.43 27.334-23.581z" fill="#bae1f8"/><g fill="#bae1f8"><path d="m76.597 93.452c2.761 0 5-2.239 5-5s-2.239-5-5-5h-8.408v-22.969h1.732c2.761 0 5-2.239 5-5s-2.239-5-5-5h-13.464c-2.761 0-5 2.239-5 5s2.239 5 5 5h1.732v22.968h-2.259c-2.761 0-5 2.239-5 5s2.239 5 5 5h2.259v88.643h-2.259c-2.761 0-5 2.239-5 5s2.239 5 5 5h2.259v88.643h-2.259c-2.761 0-5 2.239-5 5s2.239 5 5 5h2.259v88.643h-2.259c-2.761 0-5 2.239-5 5s2.239 5 5 5h2.259v33.859h-1.732c-2.761 0-5 2.239-5 5s2.239 5 5 5h13.464c2.761 0 5-2.239 5-5s-2.239-5-5-5h-1.732v-33.859h8.408c2.761 0 5-2.239 5-5s-2.239-5-5-5h-8.408v-88.643h8.408c2.761 0 5-2.239 5-5s-2.239-5-5-5h-8.408v-88.643h8.408c2.761 0 5-2.239 5-5s-2.239-5-5-5h-8.408v-88.642z"/><path d="m172.263 152.995c0-2.761-2.239-5-5-5h-66.667c-2.761 0-5 2.239-5 5s2.239 5 5 5h66.667c2.762 0 5-2.239 5-5z"/><path d="m456.07 458.053c-2.762 0-5 2.239-5 5v1.732h-30.807v-5.308c0-2.761-2.238-5-5-5s-5 2.239-5 5v5.308h-57.171v-5.308c0-2.761-2.238-5-5-5s-5 2.239-5 5v5.308h-57.172v-5.308c0-2.761-2.238-5-5-5s-5 2.239-5 5v5.308h-57.171v-5.308c0-2.761-2.239-5-5-5s-5 2.239-5 5v5.308h-57.171v-5.308c0-2.761-2.239-5-5-5s-5 2.239-5 5v5.308h-30.807v-1.732c0-2.761-2.239-5-5-5s-5 2.239-5 5v13.464c0 2.761 2.239 5 5 5s5-2.239 5-5v-1.732h30.807v1.732c0 2.761 2.239 5 5 5s5-2.239 5-5v-1.732h57.171v1.732c0 2.761 2.239 5 5 5s5-2.239 5-5v-1.732h57.171v1.732c0 2.761 2.238 5 5 5s5-2.239 5-5v-1.732h57.172v1.732c0 2.761 2.238 5 5 5s5-2.239 5-5v-1.732h57.171v1.732c0 2.761 2.238 5 5 5s5-2.239 5-5v-1.732h30.807v1.732c0 2.761 2.238 5 5 5s5-2.239 5-5v-13.464c0-2.761-2.238-5-5-5z"/></g><path d="m141.578 400.622c-2.762 0-5-2.239-5-5 0-3.309-2.691-6-6-6-2.762 0-5-2.239-5-5s2.238-5 5-5c3.309 0 6-2.691 6-6 0-2.761 2.238-5 5-5s5 2.239 5 5c0 3.309 2.691 6 6 6 2.762 0 5 2.239 5 5s-2.238 5-5 5c-3.309 0-6 2.691-6 6 0 2.761-2.238 5-5 5z" fill="#17B794"/><path d="m157.578 260.646c-2.762 0-5-2.239-5-5 0-3.309-2.691-6-6-6-2.762 0-5-2.239-5-5s2.238-5 5-5c3.309 0 6-2.691 6-6 0-2.761 2.238-5 5-5s5 2.239 5 5c0 3.309 2.691 6 6 6 2.762 0 5 2.239 5 5s-2.238 5-5 5c-3.309 0-6 2.691-6 6 0 2.762-2.238 5-5 5z" fill="#17B794"/><path d="m442.264 249.471c-2.762 0-5-2.239-5-5 0-3.309-2.691-6-6-6-2.762 0-5-2.239-5-5s2.238-5 5-5c3.309 0 6-2.691 6-6 0-2.761 2.238-5 5-5s5 2.239 5 5c0 3.309 2.691 6 6 6 2.762 0 5 2.239 5 5s-2.238 5-5 5c-3.309 0-6 2.691-6 6 0 2.761-2.239 5-5 5z" fill="#2a719b"/><path d="m423.693 309.115c-1.279 0-2.56-.488-3.535-1.464-1.953-1.953-1.953-5.119 0-7.071l10-10c1.951-1.952 5.119-1.952 7.07 0 1.953 1.953 1.953 5.119 0 7.071l-10 10c-.975.975-2.255 1.464-3.535 1.464z" fill="#2a719b"/><path d="m222 83.452c-1.279 0-2.56-.488-3.535-1.464-1.953-1.953-1.953-5.119 0-7.071l10-10c1.951-1.952 5.119-1.952 7.07 0 1.953 1.953 1.953 5.119 0 7.071l-10 10c-.975.975-2.256 1.464-3.535 1.464z" fill="#17B794"/><path d="m425.28 370.663c-.904-3.224-4.682-4.697-7.489-2.872-5.178 3.367-9.761 5.046-13.75 5.046-4.649 0-7.772-1.784-9.38-5.359-1.608-3.567-2.411-9.647-2.411-18.222v-135.774c0-19.646-1.341-35.188-4.019-46.627-2.68-11.431-7.956-21.077-15.81-28.94-8.575-8.575-19.294-14.646-32.157-18.222-27.932-7.765-57.76-7.593-86.046-1.82-23.487 4.793-49.482 13.634-63.747 34.244-18.211 26.31-1.473 66.724 31.885 66.725 41.453.001 57.738-53.397 21.964-75.555 9.733-3.903 28.256-9.296 46.627-3.543 14.289 4.475 24.093 17.811 24.128 32.784v.224 41.803c0 9.647-4.555 17.242-13.666 22.778-37.683 22.894-90.487 24.651-119.514 61.096-14.432 18.119-16.648 44.712-8.375 66.131 10.572 27.372 35.827 38.109 63.845 38.109 34.65 0 60.912-14.47 78.783-43.411.351 13.223 4.462 23.766 12.325 31.621 7.856 7.863 21.613 11.79 41.267 11.79 21.932 0 40.682-5.894 56.241-17.688 1.644-1.246 2.367-3.371 1.81-5.357zm-110.204-44.269c-10.368 14.654-19.576 23.106-34.836 26.356-10.912 2.324-34.836-1.5-34.836-27.258 0-24.742 28.404-36.449 42.338-45.384 13.935-8.575 23.046-16.43 27.334-23.581z" fill="#73aacf"/><g><g><g><path d="m76.597 73.452c2.762 0 5-2.239 5-5s-2.238-5-5-5h-8.408v-22.969h1.732c2.762 0 5-2.239 5-5s-2.238-5-5-5h-13.464c-2.762 0-5 2.239-5 5s2.238 5 5 5h1.731v22.968h-2.258c-2.762 0-5 2.239-5 5s2.238 5 5 5h2.259v88.643h-2.259c-2.762 0-5 2.239-5 5s2.238 5 5 5h2.259v88.643h-2.259c-2.762 0-5 2.239-5 5s2.238 5 5 5h2.259v88.643h-2.259c-2.762 0-5 2.239-5 5s2.238 5 5 5h2.259v33.859h-1.731c-2.762 0-5 2.239-5 5s2.238 5 5 5h13.464c2.762 0 5-2.239 5-5s-2.238-5-5-5h-1.732v-33.859h8.408c2.762 0 5-2.239 5-5s-2.238-5-5-5h-8.408v-88.643h8.408c2.762 0 5-2.239 5-5s-2.238-5-5-5h-8.408v-88.643h8.408c2.762 0 5-2.239 5-5s-2.238-5-5-5h-8.408v-88.642z" fill="#11385b"/></g><g><path d="m100.597 99.333h16.667c2.762 0 5-2.239 5-5s-2.238-5-5-5h-16.667c-2.762 0-5 2.239-5 5s2.238 5 5 5z" fill="#11385b"/></g><g><path d="m100.597 118.664h66.667c2.762 0 5-2.239 5-5s-2.238-5-5-5h-66.667c-2.762 0-5 2.239-5 5s2.238 5 5 5z" fill="#11385b"/></g><g><path d="m172.264 132.995c0-2.761-2.238-5-5-5h-66.667c-2.762 0-5 2.239-5 5s2.238 5 5 5h66.667c2.761 0 5-2.239 5-5z" fill="#11385b"/></g><g><path d="m456.07 438.053c-2.762 0-5 2.239-5 5v1.732h-30.807v-5.308c0-2.761-2.238-5-5-5s-5 2.239-5 5v5.308h-57.172v-5.308c0-2.761-2.238-5-5-5s-5 2.239-5 5v5.308h-57.171v-5.308c0-2.761-2.238-5-5-5s-5 2.239-5 5v5.308h-57.172v-5.308c0-2.761-2.238-5-5-5s-5 2.239-5 5v5.308h-57.171v-5.308c0-2.761-2.238-5-5-5s-5 2.239-5 5v5.308h-30.807v-1.732c0-2.761-2.238-5-5-5s-5 2.239-5 5v13.464c0 2.761 2.238 5 5 5s5-2.239 5-5v-1.732h30.807v1.732c0 2.761 2.238 5 5 5s5-2.239 5-5v-1.732h57.171v1.732c0 2.761 2.238 5 5 5s5-2.239 5-5v-1.732h57.172v1.732c0 2.761 2.238 5 5 5s5-2.239 5-5v-1.732h57.171v1.732c0 2.761 2.238 5 5 5s5-2.239 5-5v-1.732h57.172v1.732c0 2.761 2.238 5 5 5s5-2.239 5-5v-1.732h30.807v1.732c0 2.761 2.238 5 5 5s5-2.239 5-5v-13.464c0-2.761-2.238-5-5-5z" fill="#11385b"/></g><g><path d="m187.41 196.688c2.598-.937 3.944-3.801 3.009-6.399-4.35-12.07-2.794-25.276 4.163-35.327 10.896-15.743 30.163-25.971 60.636-32.19 29.219-5.963 58.164-5.362 83.707 1.738 11.966 3.326 22.046 9.025 29.958 16.938 7.158 7.166 12.03 16.098 14.48 26.546 2.579 11.018 3.887 26.322 3.887 45.487v68.519c0 2.761 2.238 5 5 5s5-2.239 5-5v-68.519c0-19.931-1.396-36.002-4.15-47.768-2.882-12.289-8.649-22.83-17.144-31.334-9.148-9.148-20.706-15.71-34.354-19.503-27.059-7.521-57.621-8.18-88.385-1.901-20.863 4.258-50.493 12.653-66.858 36.296-8.792 12.703-10.792 29.305-5.349 44.409.937 2.599 3.809 3.944 6.4 3.008z" fill="#11385b"/></g><g><path d="m168.856 366.359c10.288 26.638 34.619 41.308 68.509 41.308 31.76 0 57.1-11.764 75.507-35.009 2.118 8.563 6.153 15.848 12.064 21.753 8.912 8.92 23.567 13.256 44.804 13.256 22.949 0 42.889-6.292 59.262-18.703 3.308-2.506 4.723-6.703 3.604-10.693l-2.512-8.958c-.857-3.057-3.146-5.551-6.119-6.671-2.991-1.128-6.239-.779-8.91.958-4.325 2.813-8.034 4.238-11.024 4.238-3.735 0-4.44-1.567-4.821-2.415-.898-1.993-1.97-6.415-1.97-16.166v-33.257c0-2.761-2.238-5-5-5s-5 2.239-5 5v33.256c0 9.386.934 16.019 2.852 20.272 2.409 5.358 7.359 8.309 13.939 8.309 5.027 0 10.417-1.915 16.425-5.824l2.496 8.98c-14.596 11.063-32.503 16.673-53.222 16.673-18.191 0-30.886-3.474-37.733-10.328-6.989-6.982-10.542-16.211-10.86-28.215-.059-2.21-1.562-4.12-3.696-4.695-2.139-.577-4.396.32-5.556 2.201-17.053 27.614-41.431 41.038-74.529 41.038-39.76 0-54.145-21.873-59.181-34.91-8.034-20.803-4.971-45.403 7.623-61.214 17.069-21.432 42.668-30.183 69.77-39.448 16.53-5.651 33.623-11.495 48.43-20.49 10.663-6.479 16.069-15.58 16.069-27.051v-42.038c-.041-17.292-11.146-32.38-27.634-37.543-19.945-6.246-39.877-.379-49.983 3.674-1.75.702-2.957 2.33-3.12 4.208s.745 3.689 2.349 4.683c17.126 10.608 19.459 27.629 15.932 40.021-3.451 12.125-14.757 26.284-35.262 26.284-3.993 0-7.833-.666-11.413-1.979-2.594-.948-5.465.38-6.415 2.974-.95 2.593.381 5.465 2.974 6.416 4.687 1.717 9.684 2.588 14.854 2.589h.002c21.462 0 39.079-13.168 44.879-33.546 4.782-16.802-.084-33.701-12.461-45.286 9.395-2.633 22.153-4.416 34.678-.494 12.112 3.793 20.592 15.317 20.622 28.012v42.026c0 7.848-3.684 13.9-11.262 18.505-13.878 8.431-29.71 13.843-46.472 19.574-27.27 9.322-55.467 18.962-74.357 42.68-14.963 18.781-18.547 46.668-9.132 71.045z" fill="#11385b"/></g><g><g><path d="m310.788 253.955c-3.847 6.415-12.481 13.781-25.745 21.943-2.124 1.362-4.685 2.841-7.396 4.406-14.831 8.563-37.243 21.504-37.243 45.188 0 13.551 5.98 21.236 10.998 25.298 6.666 5.395 15.329 7.555 22.804 7.555 2.537 0 4.938-.249 7.076-.705 17.465-3.72 27.44-13.608 37.876-28.359.598-.844.918-1.854.918-2.888v-69.867c0-2.248-1.5-4.219-3.666-4.819-2.164-.598-4.467.32-5.622 2.248zm-.712 70.836c-10.372 14.359-18.576 20.449-30.878 23.069-4.938 1.052-14.743.631-21.504-4.843-4.838-3.916-7.29-9.812-7.29-17.525 0-17.911 17.878-28.233 32.243-36.527 2.815-1.625 5.474-3.161 7.715-4.599 8.149-5.014 14.69-9.778 19.714-14.371z" fill="#11385b"/></g></g></g></g></g></g></svg>