<svg id="Capa_1" enable-background="new 0 0 512 512" height="512" viewBox="0 0 512 512" width="512" xmlns="http://www.w3.org/2000/svg" xmlns:xlink="http://www.w3.org/1999/xlink"><linearGradient id="SVGID_1_" gradientUnits="userSpaceOnUse" x1="0" x2="512" y1="256" y2="256"><stop offset="0" stop-color="#d2deff" stop-opacity="0"/><stop offset=".459" stop-color="#cee2fd" stop-opacity=".67"/><stop offset=".6852" stop-color="#c9e7fa"/></linearGradient><g><g><path d="m20.337 133.512c-23.967 39.398-26.493 107.613-8.937 150.256 15.377 37.351 45.966 72.409 86.12 76.801 14.766 1.615 29.858-1.024 44.472 1.638 50.257 9.152 68.952 71.09 108.01 104.014 27.182 22.913 64.898 31.021 100.174 26.607s68.302-20.363 97.376-40.824c22.957-16.157 44.436-36.022 55.764-61.707 23.744-53.839-4.19-118.501-47.587-158.239-13.516-12.377-28.581-23.294-39.875-37.727s-18.48-33.695-13.099-51.214c4.293-13.977 15.849-24.812 20.227-38.763 5.958-18.984-3.035-40.281-17.802-53.616s-34.308-20.039-53.666-24.64c-81.103-19.28-258.823-11.524-331.177 107.414z" fill="url(#SVGID_1_)"/></g><g><g><g fill="#bae1f8"><path d="m419.971 231.365h-117.805v-117.806c0-7.515-6.114-13.629-13.629-13.629h-196.514c-7.516 0-13.629 6.114-13.629 13.629v196.513c0 7.515 6.114 13.629 13.629 13.629h117.807v117.806c0 7.515 6.114 13.629 13.629 13.629h196.513c7.516 0 13.629-6.114 13.629-13.629v-196.513c0-7.515-6.114-13.629-13.63-13.629zm-144.441 92.336h13.006c7.516 0 13.63-6.114 13.63-13.63v-13h65.74v92.376h-92.376z"/><path d="m153.098 401.46h-21.016v-21.016c0-2.996-2.429-5.426-5.426-5.426h-42.836c-2.997 0-5.426 2.429-5.426 5.426v42.835c0 2.996 2.429 5.426 5.426 5.426h21.017v21.017c0 2.996 2.429 5.426 5.426 5.426h42.835c2.997 0 5.426-2.429 5.426-5.426v-42.836c0-2.996-2.429-5.426-5.426-5.426zm-5.426 42.836h-31.984v-15.591h10.968c2.997 0 5.426-2.429 5.426-5.426v-10.968h15.59z"/><path d="m361.399 129.143c1.059 1.059 2.448 1.589 3.836 1.589s2.778-.53 3.836-1.589c2.119-2.119 2.119-5.555 0-7.674l-.713-.713h27.85c9.137 0 16.57 7.433 16.57 16.569v24.336l-.713-.713c-2.117-2.118-5.555-2.118-7.672 0-2.119 2.119-2.119 5.555 0 7.674l9.975 9.975c1.059 1.059 2.448 1.589 3.836 1.589s2.778-.53 3.836-1.589l9.975-9.975c2.119-2.119 2.119-5.555 0-7.674-2.117-2.118-5.555-2.118-7.672 0l-.713.713v-24.336c0-15.12-12.301-27.421-27.422-27.421h-27.85l.713-.713c2.119-2.119 2.119-5.555 0-7.674-2.117-2.118-5.555-2.118-7.672 0l-9.975 9.975c-2.119 2.119-2.119 5.555 0 7.674z"/></g><g><g><g><g><path d="m419.979 215.098h-196.523c-4.525 0-8.204 3.668-8.204 8.204v196.513c0 4.536 3.679 8.204 8.204 8.204h196.524c4.525 0 8.204-3.668 8.204-8.204v-196.513c-.001-4.536-3.679-8.204-8.205-8.204zm-123.231 54.845h76.58v103.232h-103.221v-103.232z" fill="#2a719b"/><path d="m296.748 215.098v54.844h-26.641v47.791h-54.855v-94.431c0-4.536 3.679-8.204 8.204-8.204z" fill="#226191"/></g><g><path d="m296.745 91.86v196.513c0 4.531-3.673 8.204-8.204 8.204h-196.513c-4.53 0-8.203-3.673-8.203-8.203v-196.514c0-4.53 3.673-8.203 8.203-8.203h196.513c4.531 0 8.204 3.673 8.204 8.203z" fill="#fff"/><g><path d="m296.745 91.86-204.717 204.717c-4.53 0-8.203-3.673-8.203-8.203v-.023l204.694-204.694h.023c4.53 0 8.203 3.673 8.203 8.203z" fill="#17B794"/></g></g></g><path d="m83.821 358.742h42.836v42.836h-42.836z" fill="#2a719b"/></g><g><g><g><g><path d="m419.972 210.087h-118.232v-118.232c0-7.28-5.923-13.203-13.203-13.203h-196.514c-7.28 0-13.203 5.923-13.203 13.203v196.514c0 7.28 5.923 13.203 13.203 13.203h144.08c2.762 0 5-2.239 5-5s-2.238-5-5-5h-144.08c-1.767 0-3.203-1.437-3.203-3.203v-196.514c0-1.766 1.437-3.203 3.203-3.203h196.514c1.767 0 3.203 1.437 3.203 3.203v196.513c0 1.767-1.438 3.204-3.204 3.204h-18.433c-2.762 0-5 2.239-5 5v76.598c0 2.761 2.238 5 5 5h103.228c2.762 0 5-2.239 5-5v-103.227c0-2.761-2.238-5-5-5h-71.591v-44.855h118.231c1.767 0 3.203 1.437 3.203 3.203v196.513c0 1.766-1.437 3.203-3.203 3.203h-196.513c-1.767 0-3.203-1.437-3.203-3.203v-88.731c0-2.761-2.238-5-5-5s-5 2.239-5 5v88.731c0 7.28 5.923 13.203 13.203 13.203h196.514c7.28 0 13.203-5.923 13.203-13.203v-196.513c0-7.281-5.923-13.204-13.203-13.204zm-51.641 64.856v93.228h-93.228v-66.598h13.433c7.281 0 13.204-5.923 13.204-13.204v-13.425h66.591z" fill="#11385b"/></g></g><g><g><path d="m153.099 380.183h-21.442v-21.442c0-2.761-2.238-5-5-5h-42.837c-2.762 0-5 2.239-5 5v42.836c0 2.761 2.238 5 5 5h21.442v21.442c0 2.761 2.238 5 5 5h42.836c2.762 0 5-2.239 5-5v-42.835c.001-2.762-2.238-5.001-4.999-5.001zm-64.279-16.442h32.836v32.836h-32.836zm59.279 59.278h-32.836v-16.442h11.394c2.762 0 5-2.239 5-5v-11.394h16.442z" fill="#11385b"/></g></g><g><path d="m361.699 107.138c.977.977 2.257 1.465 3.536 1.465s2.56-.488 3.535-1.464c1.953-1.953 1.953-5.118.001-7.071l-1.44-1.44h28.879c9.37 0 16.994 7.624 16.994 16.995v25.364l-1.438-1.439c-1.953-1.953-5.12-1.953-7.071 0-1.953 1.953-1.953 5.118-.001 7.071l9.975 9.976c.938.938 2.21 1.465 3.536 1.465s2.598-.527 3.535-1.464l9.976-9.976c1.953-1.953 1.953-5.119 0-7.071-1.951-1.952-5.119-1.952-7.07 0l-1.44 1.44v-25.365c0-14.885-12.109-26.995-26.994-26.995h-28.879l1.439-1.439c1.953-1.953 1.953-5.119 0-7.071-1.951-1.952-5.119-1.952-7.07 0l-9.975 9.975c-1.953 1.953-1.953 5.118-.001 7.071z" fill="#11385b"/></g></g></g></g></g><g><path d="m65.125 339.465c-2.762 0-5-2.239-5-5 0-3.309-2.691-6-6-6-2.762 0-5-2.239-5-5s2.238-5 5-5c3.309 0 6-2.691 6-6 0-2.761 2.238-5 5-5s5 2.239 5 5c0 3.309 2.691 6 6 6 2.762 0 5 2.239 5 5s-2.238 5-5 5c-3.309 0-6 2.691-6 6 0 2.762-2.238 5-5 5z" fill="#17B794"/><path d="m446.875 201.335c-2.762 0-5-2.239-5-5 0-3.309-2.691-6-6-6-2.762 0-5-2.239-5-5s2.238-5 5-5c3.309 0 6-2.691 6-6 0-2.761 2.238-5 5-5s5 2.239 5 5c0 3.309 2.691 6 6 6 2.762 0 5 2.239 5 5s-2.238 5-5 5c-3.309 0-6 2.691-6 6 0 2.761-2.238 5-5 5z" fill="#2a719b"/></g><g fill="#17B794"><path d="m180.438 446.453c-1.279 0-2.56-.488-3.535-1.464-1.953-1.953-1.953-5.119 0-7.071l10-10c1.951-1.952 5.119-1.952 7.07 0 1.953 1.953 1.953 5.119 0 7.071l-10 10c-.976.976-2.256 1.464-3.535 1.464z"/><path d="m321.561 71.852c-1.279 0-2.56-.488-3.535-1.464-1.953-1.953-1.953-5.119 0-7.071l10-10c1.951-1.952 5.119-1.952 7.07 0 1.953 1.953 1.953 5.119 0 7.071l-10 10c-.976.976-2.256 1.464-3.535 1.464z"/><path d="m337.47 179.335c-1.279 0-2.56-.488-3.535-1.464-1.953-1.953-1.953-5.119 0-7.071l10-10c1.951-1.952 5.119-1.952 7.07 0 1.953 1.953 1.953 5.119 0 7.071l-10 10c-.976.976-2.256 1.464-3.535 1.464z"/></g></g></g></svg>