<svg id="Capa_1" enable-background="new 0 0 512 512" height="512" viewBox="0 0 512 512" width="512" xmlns="http://www.w3.org/2000/svg" xmlns:xlink="http://www.w3.org/1999/xlink"><linearGradient id="SVGID_1_" gradientUnits="userSpaceOnUse" x1="0" x2="512" y1="256" y2="256"><stop offset="0" stop-color="#d2deff" stop-opacity="0"/><stop offset=".459" stop-color="#cee2fd" stop-opacity=".67"/><stop offset=".6852" stop-color="#c9e7fa"/></linearGradient><g><g><path d="m20.337 133.512c-23.967 39.398-26.493 107.613-8.937 150.256 15.377 37.351 45.966 72.409 86.12 76.801 14.766 1.615 29.858-1.024 44.472 1.638 50.257 9.152 68.952 71.09 108.01 104.014 27.182 22.913 64.898 31.021 100.174 26.607s68.302-20.363 97.376-40.824c22.957-16.157 44.436-36.022 55.764-61.707 23.744-53.839-4.19-118.501-47.587-158.239-13.516-12.377-28.581-23.294-39.875-37.727s-18.48-33.695-13.099-51.214c4.293-13.977 15.849-24.812 20.227-38.763 5.958-18.984-3.035-40.281-17.802-53.616s-34.308-20.039-53.666-24.64c-81.103-19.28-258.823-11.524-331.177 107.414z" fill="url(#SVGID_1_)"/></g><g><g><path d="m446.24 443.757h-380.48c-5.523 0-10-4.477-10-10v-256.837c0-5.523 4.477-10 10-10h380.48c5.523 0 10 4.477 10 10v256.838c0 5.522-4.477 9.999-10 9.999z" fill="#bae1f8"/><path d="m200.973 130.786 193.005-3.443c5.452-.097 9.822-4.545 9.822-9.998v-7.571c0-5.453-4.369-9.901-9.822-9.998l-193.005-3.443c-14.023-.25-27.784-3.436-40.424-9.283-2.317-1.072-4.984-1.08-7.298-.001l-24.528 11.442c-3.521 1.643-5.772 5.177-5.772 9.062v12.012c0 3.886 2.251 7.42 5.772 9.062l24.528 11.442c2.314 1.079 4.981 1.071 7.298-.001 12.64-5.846 26.401-9.032 40.424-9.282z" fill="#bae1f8"/><g><g><path d="m446.24 423.757h-380.48c-5.523 0-10-4.477-10-10v-256.837c0-5.523 4.477-10 10-10h380.48c5.523 0 10 4.477 10 10v256.838c0 5.522-4.477 9.999-10 9.999z" fill="#2a719b"/><path d="m399.724 385.082h-343.964v-199.488h343.964c2.761 0 5 2.239 5 5v189.488c0 2.762-2.239 5-5 5z" fill="#73aacf"/><path d="m399.724 385.082h-239.909v-199.488h239.909c2.761 0 5 2.239 5 5v189.488c0 2.762-2.239 5-5 5z" fill="#fff"/><g><circle cx="111.347" cy="282.838" fill="#2a719b" r="19.288"/><g fill="#3e85a9"><g><circle cx="86.762" cy="258.602" r="3.764"/><circle cx="135.932" cy="258.602" r="3.764"/></g><g><circle cx="86.762" cy="307.075" r="3.764"/><circle cx="135.932" cy="307.075" r="3.764"/></g></g></g><g fill="#2a719b"><g><path d="m118.347 245.172h-14c-2.761 0-5-2.239-5-5v-5.667c0-2.761 2.239-5 5-5h14c2.761 0 5 2.239 5 5v5.667c0 2.761-2.239 5-5 5z"/><path d="m118.347 222.172h-14c-2.761 0-5-2.239-5-5v-5.667c0-2.761 2.239-5 5-5h14c2.761 0 5 2.239 5 5v5.667c0 2.761-2.239 5-5 5z"/></g><g><path d="m118.347 359.172h-14c-2.761 0-5-2.239-5-5v-5.667c0-2.761 2.239-5 5-5h14c2.761 0 5 2.239 5 5v5.667c0 2.761-2.239 5-5 5z"/><path d="m118.347 336.172h-14c-2.761 0-5-2.239-5-5v-5.667c0-2.761 2.239-5 5-5h14c2.761 0 5 2.239 5 5v5.667c0 2.761-2.239 5-5 5z"/></g></g><g><g><g><path d="m183.75 218.172c-2.761 0-5-2.239-5-5v-5.5c0-2.761 2.239-5 5-5h5.5c2.761 0 5 2.239 5 5s-2.239 5-5 5h-.5v.5c0 2.761-2.239 5-5 5z" fill="#bae1f8"/></g><g><path d="m374 218.172c-2.761 0-5-2.239-5-5v-.5h-.5c-2.761 0-5-2.239-5-5s2.239-5 5-5h5.5c2.761 0 5 2.239 5 5v5.5c0 2.761-2.239 5-5 5z" fill="#bae1f8"/></g></g><g><g><path d="m374 363.005h-5.5c-2.761 0-5-2.239-5-5s2.239-5 5-5h.5v-.5c0-2.761 2.239-5 5-5s5 2.239 5 5v5.5c0 2.761-2.239 5-5 5z" fill="#bae1f8"/></g><g><path d="m189.25 363.005h-5.5c-2.761 0-5-2.239-5-5v-5.5c0-2.761 2.239-5 5-5s5 2.239 5 5v.5h.5c2.761 0 5 2.239 5 5s-2.239 5-5 5z" fill="#bae1f8"/></g></g></g><g><g><path d="m427.833 298.649c-2.761 0-5-2.239-5-5v-16.621c0-2.761 2.239-5 5-5s5 2.239 5 5v16.621c0 2.761-2.238 5-5 5z" fill="#73aacf"/></g></g></g><g><g><path d="m200.973 110.786 193.005-3.443c5.452-.097 9.822-4.545 9.822-9.998v-7.571c0-5.453-4.369-9.901-9.822-9.998l-193.005-3.443c-14.023-.25-27.784-3.436-40.424-9.283-2.317-1.072-4.984-1.08-7.298-.001l-24.528 11.442c-3.521 1.643-5.772 5.177-5.772 9.062v12.012c0 3.886 2.251 7.42 5.772 9.062l24.528 11.442c2.314 1.079 4.981 1.071 7.298-.001 12.64-5.846 26.401-9.032 40.424-9.282z" fill="#2a719b"/><path d="m192.25 75.789c2.89.31 5.8.49 8.72.54l43.23.77v11.46c0 2.761-2.239 5-5 5h-41.95c-2.761 0-5-2.239-5-5z" fill="#73aacf"/><path d="m268.533 109.581 125.445-2.238c5.452-.097 9.822-4.545 9.822-9.998v-7.571c0-5.453-4.369-9.901-9.822-9.998l-125.445-2.238z" fill="#73aacf"/><path d="m381.7 107.562 12.278-.219c5.453-.097 9.822-4.545 9.822-9.998v-7.571c0-5.453-4.369-9.901-9.822-9.998l-12.278-.219z" fill="#226191"/></g><g><g><g><path d="m456.24 344c2.761 0 5-2.239 5-5v-182.081c0-8.271-6.729-15-15-15h-380.48c-8.271 0-15 6.729-15 15v256.837c0 8.271 6.729 15 15 15h380.48c8.271 0 15-6.729 15-15v-40.756c0-2.761-2.239-5-5-5s-5 2.239-5 5v40.757c0 2.757-2.243 5-5 5h-380.48c-2.757 0-5-2.243-5-5v-23.674h338.964c5.514 0 10-4.486 10-10v-189.489c0-5.514-4.486-10-10-10h-309.964c-2.761 0-5 2.239-5 5s2.239 5 5 5h309.964v189.489h-338.964v-223.164c0-2.757 2.243-5 5-5h380.48c2.757 0 5 2.243 5 5v182.081c0 2.761 2.239 5 5 5z" fill="#11385b"/></g><g><g><path d="m108.2 98.56h9.751v1.006c0 5.804 3.398 11.14 8.658 13.594l24.528 11.442c.035.016.072.027.107.043.051.022.103.041.155.062 1.752.773 3.619 1.172 5.492 1.172 1.961 0 3.925-.424 5.757-1.271 12.141-5.616 25.065-8.584 38.415-8.822l193.005-3.442c8.124-.146 14.732-6.873 14.732-14.998v-7.571c0-8.125-6.609-14.853-14.732-14.998l-193.005-3.443c-13.35-.238-26.274-3.206-38.415-8.822-3.582-1.657-7.664-1.682-11.249-.1-.052.021-.104.04-.155.062-.035.016-.072.027-.107.043l-24.528 11.443c-5.259 2.454-8.658 7.79-8.658 13.593v1.006h-9.751c-2.761 0-5 2.239-5 5s2.239 5.001 5 5.001zm131-16.544v6.544h-21v-6.919zm-31-.553v7.097h-10.95v-7.361c1.208.063 2.419.112 3.634.134zm-20.95-1.252v8.349c0 5.514 4.486 10 10 10h41.95c5.514 0 10-4.486 10-10v-6.366l144.689 2.581c2.708.048 4.91 2.291 4.91 5v7.571c0 2.708-2.203 4.951-4.911 5l-193.005 3.442c-14.747.263-29.024 3.541-42.435 9.744-.064.03-.133.041-.199.067v-44.078c.065.026.134.037.199.067 9.234 4.271 18.877 7.154 28.802 8.623zm-59.299 7.343c0-1.935 1.133-3.713 2.886-4.531l17.414-8.124v37.322l-17.414-8.124c-1.753-.818-2.886-2.596-2.886-4.531z" fill="#11385b"/></g></g></g></g></g></g></g><path d="m438.833 95.557c-2.761 0-5-2.239-5-5 0-3.309-2.691-6-6-6-2.761 0-5-2.239-5-5s2.239-5 5-5c3.309 0 6-2.691 6-6 0-2.761 2.239-5 5-5s5 2.239 5 5c0 3.309 2.691 6 6 6 2.761 0 5 2.239 5 5s-2.239 5-5 5c-3.309 0-6 2.691-6 6 0 2.761-2.238 5-5 5z" fill="#17B794"/><path d="m284 477c-2.761 0-5-2.239-5-5 0-3.309-2.691-6-6-6-2.761 0-5-2.239-5-5s2.239-5 5-5c3.309 0 6-2.691 6-6 0-2.761 2.239-5 5-5s5 2.239 5 5c0 3.309 2.691 6 6 6 2.761 0 5 2.239 5 5s-2.239 5-5 5c-3.309 0-6 2.691-6 6 0 2.761-2.239 5-5 5z" fill="#2a719b"/><path d="m67 120.56c-2.761 0-5-2.239-5-5 0-3.309-2.691-6-6-6-2.761 0-5-2.239-5-5s2.239-5 5-5c3.309 0 6-2.691 6-6 0-2.761 2.239-5 5-5s5 2.239 5 5c0 3.309 2.691 6 6 6 2.761 0 5 2.239 5 5s-2.239 5-5 5c-3.309 0-6 2.691-6 6 0 2.761-2.239 5-5 5z" fill="#17B794"/><path d="m343.5 471c-1.28 0-2.559-.488-3.536-1.464-1.953-1.953-1.953-5.119 0-7.071l10-10c1.953-1.952 5.118-1.952 7.071 0 1.953 1.953 1.953 5.119 0 7.071l-10 10c-.976.976-2.255 1.464-3.535 1.464z" fill="#17B794"/><path d="m394.724 55c-1.28 0-2.559-.488-3.536-1.464-1.953-1.953-1.953-5.119 0-7.071l10-10c1.953-1.952 5.118-1.952 7.071 0 1.953 1.953 1.953 5.119 0 7.071l-10 10c-.976.976-2.255 1.464-3.535 1.464z" fill="#2a719b"/></g></g></svg>